<svg xmlns="http://www.w3.org/2000/svg" width="260.471" height="299.776" viewBox="0 0 260.471 299.776">
  <g id="data" transform="translate(-135.083 -1928.068)">
    <g id="Group_662" data-name="Group 662" transform="translate(135.083 1928.068)">
      <path id="Path" d="M239.609,186.924a96.672,96.672,0,0,1-31.14,55.513,118.008,118.008,0,0,1-18.24,13.217c-22.866,13.825-51.2,22.205-80.705,29.078l-5.049,1.137A50.751,50.751,0,0,1,91.1,287.086c-46.922-1.956-78.881-71.506-88.821-144.7C-6.393,77.22,8.12,3.414,73.1.083c24.4-1.216,52.87,10.944,79.3,30.506,1.9,1.4,3.807,2.855,5.683,4.335h0l1.163.925C208.6,75.185,248.914,138.972,239.609,186.924Z" transform="translate(19.517 0)" fill="#fedce6"/>
      <path id="Path-2" data-name="Path" d="M28.827,18.5C32.5,25.925,33.85,35.336,26.474,38.35,18.227,41.733,5.062,36.288,1.256,23.89-1.2,15.96-.357,4.91,6.543.654,12.173-2.994,24.439,9.4,28.827,18.5Z" transform="translate(0 229.782)" fill="#f5f9fd"/>
      <path id="Shape" d="M97.651,261.691a44.664,44.664,0,0,1-5.287-.634.335.335,0,0,1,.106-.661,44.34,44.34,0,0,0,5.287.634.319.319,0,0,1,.234.1.315.315,0,0,1,.083.242.343.343,0,0,1-.423.317Zm5.287,0a.317.317,0,0,1-.317-.317.291.291,0,0,1,.291-.344,43.143,43.143,0,0,0,5.287-.687.344.344,0,0,1,.4.264.317.317,0,0,1-.265.37,44.451,44.451,0,0,1-5.287.714Zm-20.646-3.674a.344.344,0,0,1-.185-.423.37.37,0,0,1,.449-.185,48.144,48.144,0,0,0,4.917,1.8.344.344,0,0,1,.238.423.37.37,0,0,1-.423.185v.026A49.679,49.679,0,0,1,82.293,258.016Zm30.717,1.427a.344.344,0,0,1,.212-.423c.767-.238,1.56-.529,2.352-.819l2.644-.978a.318.318,0,0,1,.423.185.291.291,0,0,1-.185.423l-2.644,1c-.793.291-1.613.581-2.405.819l-.079.027h-.01A.317.317,0,0,1,113.01,259.444Zm9.913-3.7a.291.291,0,0,1,.185-.423l4.917-1.956a.326.326,0,1,1,.238.608l-4.917,1.956-.132.027A.318.318,0,0,1,122.923,255.743Zm-45.362-.053v.027H77.4c-1.533-.82-3.066-1.745-4.573-2.644a.344.344,0,0,1,0-.449.317.317,0,0,1,.449,0,46.758,46.758,0,0,0,4.52,2.643.243.243,0,1,1-.238.423Zm55.222-3.886a.343.343,0,0,1,.158-.449c1.639-.661,3.278-1.348,4.891-2.062a.369.369,0,0,1,.423.185.317.317,0,0,1-.158.423c-1.639.714-3.252,1.4-4.891,2.062l-.132.026h-.02A.29.29,0,0,1,132.783,251.8ZM68.547,249.98c-1.375-1.057-2.644-2.167-4.124-3.357a.328.328,0,0,1,.423-.5c1.348,1.163,2.644,2.3,4.1,3.331a.285.285,0,0,1-.264.5l.053.026a.293.293,0,0,1-.185,0Zm73.911-2.379a.317.317,0,0,1,.159-.423c1.612-.74,3.225-1.454,4.811-2.22a.344.344,0,1,1,.264.608l-4.811,2.221-.132.027A.318.318,0,0,1,142.458,247.6Zm9.6-4.468a.317.317,0,0,1,.158-.449l4.705-2.379a.344.344,0,1,1,.317.581c-1.586.819-3.146,1.613-4.758,2.379l-.132.053h0A.316.316,0,0,1,152.054,243.134Zm-91.6-.079q-1.851-1.824-3.727-3.807a.29.29,0,0,1,0-.45.344.344,0,0,1,.476,0c1.242,1.322,2.485,2.644,3.7,3.78a.29.29,0,0,1,0,.449.265.265,0,0,1-.238,0v.027a.294.294,0,0,1-.211,0Zm101.007-4.785a.343.343,0,0,1,.132-.449c1.56-.846,3.12-1.719,4.6-2.644a.344.344,0,0,1,.45,0,.317.317,0,0,1,0,.449l-4.626,2.644-.264.185A.37.37,0,0,1,161.465,238.27ZM53.373,235.335a.368.368,0,0,1-.265,0c-1.136-1.3-2.247-2.643-3.357-4.1a.32.32,0,1,1,.5-.4c1.111,1.4,2.247,2.644,3.357,4.071a.344.344,0,0,1,0,.476Zm117.185-2.352a.318.318,0,0,1,0-.45c1.533-.952,3.04-1.9,4.468-2.855a.318.318,0,1,1,.449.45c-1.427.952-2.934,1.9-4.468,2.855l-.185.158h-.006A.29.29,0,0,1,170.558,232.983Zm8.856-5.684a.317.317,0,0,1,0-.449c1.454-1.057,2.881-2.088,4.256-3.146a.318.318,0,1,1,.45.449c-1.375,1.058-2.8,2.115-4.282,3.146a.261.261,0,0,1-.079-.026l-.079.026a.316.316,0,0,1-.264,0Zm-132.888-.423c-1.031-1.375-2.062-2.829-3.066-4.309a.37.37,0,0,1,0-.476.344.344,0,0,1,.476,0c1,1.454,2.035,2.908,3.04,4.309a.317.317,0,0,1,0,.449.347.347,0,0,1-.106.158l-.079.027A.318.318,0,0,1,46.526,226.876Zm141.294-6.133a.316.316,0,0,1,0-.45c1.348-1.137,2.643-2.3,3.991-3.463a.316.316,0,0,1,.45,0,.343.343,0,0,1,0,.475l-4.018,3.463a.339.339,0,0,1-.079.079l-.079.026A.369.369,0,0,1,187.82,220.744Zm-147.295-2.67c-.925-1.454-1.877-2.987-2.8-4.494a.344.344,0,0,1,0-.449.318.318,0,0,1,.45,0c.9,1.506,1.85,3.013,2.775,4.494a.344.344,0,0,1,0,.45l-.132.158A.37.37,0,0,1,40.526,218.074Zm155.41-4.336a.236.236,0,0,1-.211,0,.29.29,0,0,1,0-.449c1.242-1.269,2.485-2.644,3.648-3.807a.318.318,0,0,1,.45,0,.344.344,0,0,1,0,.476c-1.163,1.269-2.406,2.644-3.674,3.833l-.033,0A.316.316,0,0,1,195.936,213.738Zm-160.855-4.7c-.846-1.507-1.719-3.067-2.644-4.653a.344.344,0,0,1,.581-.317c.846,1.586,1.718,3.146,2.644,4.626a.344.344,0,0,1,0,.45l-.291.053h0A.343.343,0,0,1,35.08,209.033Zm168.046-3.12h-.264a.344.344,0,0,1,0-.476c1.11-1.375,2.194-2.644,3.225-4.177a.318.318,0,1,1,.45.45c-1.031,1.4-2.115,2.828-3.251,4.2a.29.29,0,0,1-.159,0ZM30.058,199.675c-.819-1.586-1.613-3.2-2.352-4.758a.384.384,0,0,1,.581-.423l2.352,4.758a.343.343,0,0,1-.132.449l-.158.159h0A.317.317,0,0,1,30.058,199.675ZM209.338,197.4l-.053-.026h-.159a.318.318,0,0,1,0-.45c.952-1.48,1.85-2.987,2.644-4.52a.344.344,0,1,1,.581.317c-.872,1.533-1.8,3.066-2.643,4.546a.37.37,0,0,1-.37.132Zm-183.88-7.27c-.74-1.613-1.454-3.225-2.167-4.864a.327.327,0,1,1,.608-.238c.687,1.613,1.427,3.225,2.141,4.811a.344.344,0,0,1-.159.45l-.132.026h0A.317.317,0,0,1,25.458,190.132Zm188.982-1.982a.344.344,0,0,1-.158-.45c.767-1.56,1.48-3.172,2.167-4.811a.318.318,0,0,1,.423-.158.344.344,0,0,1,.185.423c-.687,1.639-1.4,3.278-2.168,4.837a.344.344,0,0,1-.449.159ZM21.175,180.4q-1.031-2.458-1.982-4.917a.317.317,0,0,1,.185-.45.343.343,0,0,1,.423.212c.635,1.639,1.3,3.277,1.983,4.89a.371.371,0,0,1-.185.45h-.152A.292.292,0,0,1,21.175,180.4Zm197.283-2.036a.344.344,0,0,1-.211-.423c.581-1.665,1.084-3.357,1.56-5.022a.327.327,0,1,1,.634.158c-.476,1.692-1,3.41-1.56,5.076a.343.343,0,0,1-.317.211Zm-200.9-7.639a.344.344,0,0,1-.317-.212c-.608-1.639-1.216-3.3-1.8-4.97a.326.326,0,1,1,.608-.238c.608,1.665,1.19,3.331,1.824,5a.344.344,0,0,1-.212.423Zm203.68-2.644a.343.343,0,0,1-.265-.4c.37-1.745.714-3.49.978-5.287a.343.343,0,0,1,.4-.265.318.318,0,0,1,.265.37c-.265,1.718-.608,3.463-.978,5.287a.37.37,0,0,1-.238.529Zm-207.381-7.56c-.555-1.665-1.11-3.331-1.639-5.022a.344.344,0,0,1,.634-.212c.529,1.692,1.084,3.357,1.639,5.023a.318.318,0,0,1-.212.423l-.106.026A.37.37,0,0,1,13.853,160.525Zm208.925-2.852a.29.29,0,0,1-.064-.241c.185-1.718.344-3.489.449-5.287a.318.318,0,0,1,.344-.317.37.37,0,0,1,.317.344,49.128,49.128,0,0,1-.449,5.287.343.343,0,0,1-.265.291l-.106.026h0A.292.292,0,0,1,222.778,157.673ZM10.892,150.665a.343.343,0,0,1-.317-.212c-.5-1.692-1-3.41-1.481-5.1a.331.331,0,0,1,.635-.185c.476,1.718.978,3.41,1.48,5.076a.344.344,0,0,1-.212.423Zm212.456-3.807c0-1.745-.132-3.516-.264-5.287a.317.317,0,0,1,.291-.37.345.345,0,0,1,.37.317c0,1.744.238,3.542.264,5.287a.344.344,0,0,1-.317.344l-.026.027A.318.318,0,0,1,223.348,146.858ZM7.773,140.25v-.265c-.45-1.718-.9-3.436-1.322-5.287a.34.34,0,0,1,.661-.158c.423,1.718.846,3.436,1.3,5.128v.264a.344.344,0,0,1-.238.423l-.079.132H8.08A.316.316,0,0,1,7.773,140.25Zm214.65-3.912c-.265-1.692-.581-3.436-.952-5.287a.324.324,0,1,1,.634-.132c.4,1.745.714,3.489.978,5.287a.318.318,0,0,1-.265.37l-.053.026h-.01A.343.343,0,0,1,222.423,136.337ZM5.288,129.676c-.4-1.745-.767-3.49-1.083-5.287a.324.324,0,1,1,.634-.132c.344,1.692.714,3.436,1.084,5.287a.317.317,0,0,1-.238.4H5.6A.317.317,0,0,1,5.288,129.676Zm215.02-3.6c-.476-1.639-1-3.357-1.559-5.022a.335.335,0,1,1,.634-.212c.555,1.692,1.084,3.41,1.56,5.076a.317.317,0,0,1-.238.4l-.079.027h0A.317.317,0,0,1,220.308,126.08ZM3.438,119.551a.317.317,0,0,1-.317-.265c-.317-1.744-.608-3.515-.872-5.287a.335.335,0,1,1,.66-.106c.265,1.745.555,3.489.846,5.287a.344.344,0,0,1-.264.4Zm213.328-3.463c-.634-1.613-1.3-3.251-2.009-4.891a.316.316,0,0,1,.158-.423.343.343,0,0,1,.449.158c.714,1.639,1.4,3.278,2.009,4.917a.317.317,0,0,1-.185.423l-.106.027A.344.344,0,0,1,216.766,116.088Zm-215.258-7.3c-.211-1.745-.423-3.516-.608-5.287a.317.317,0,0,1,.291-.37.344.344,0,0,1,.37.291c.185,1.745.4,3.516.608,5.287a.317.317,0,0,1-.291.37H1.848A.344.344,0,0,1,1.508,108.792Zm211.082-2.379c-.74-1.533-1.56-3.12-2.405-4.705a.287.287,0,1,1,.449-.317c.846,1.586,1.665,3.172,2.432,4.732a.343.343,0,0,1-.158.449v.027A.4.4,0,0,1,212.59,106.413ZM.768,98.562l-.026-.027a.317.317,0,0,1-.317-.291c0-1.8-.264-3.595-.344-5.287A.344.344,0,0,1,.4,92.614a.317.317,0,0,1,.344.317c0,1.718.211,3.489.344,5.287a.317.317,0,0,1-.316.344ZM207.62,97.108c-.873-1.506-1.8-3.013-2.644-4.52a.37.37,0,0,1,0-.476.344.344,0,0,1,.45,0c.952,1.534,1.877,3.04,2.643,4.547a.317.317,0,0,1,0,.449l-.185.159h0A.29.29,0,0,1,207.62,97.108Zm-5.631-8.829c-.952-1.427-1.956-2.882-2.987-4.362a.316.316,0,0,1,0-.449.344.344,0,0,1,.476,0c1.057,1.454,2.062,2.934,3.013,4.361a.344.344,0,0,1,0,.45.264.264,0,0,1-.212,0,.424.424,0,0,1-.291,0ZM.345,87.962H.318A.317.317,0,0,1,0,87.644V82.331a.318.318,0,0,1,.317-.317.317.317,0,0,1,.344.317v5.287a.317.317,0,0,1-.315.344Zm195.617-8.3c-1.084-1.427-2.168-2.829-3.252-4.177a.327.327,0,1,1,.476-.45c1.058,1.349,2.168,2.644,3.252,4.177a.344.344,0,0,1,0,.476l-.212-.026a.316.316,0,0,1-.264,0ZM.318,77.361A.317.317,0,0,1,0,77.018c0-1.771.185-3.542.317-5.287a.317.317,0,0,1,.344-.317.37.37,0,0,1,.317.37C.979,73.5.741,75.3.662,77.07a.343.343,0,0,1-.339.291Zm188.929-5.974-3.463-4.018a.327.327,0,1,1,.476-.449c1.137,1.269,2.3,2.643,3.463,3.992a.344.344,0,0,1,0,.476.29.29,0,0,1-.212,0,.343.343,0,0,1-.264,0ZM1.164,66.814a.344.344,0,0,1-.291-.37c.211-1.771.449-3.543.74-5.287a.318.318,0,0,1,.37-.265.291.291,0,0,1,.265.37c-.265,1.692-.5,3.463-.714,5.287a.345.345,0,0,1-.335.266ZM182.48,63.456a.292.292,0,0,1-.238,0c-1.19-1.3-2.432-2.643-3.648-3.833a.344.344,0,0,1,0-.476.37.37,0,0,1,.476,0c1.216,1.269,2.458,2.643,3.648,3.859a.344.344,0,0,1,0,.476.417.417,0,0,1-.073.006A.427.427,0,0,1,182.48,63.456ZM2.962,56.372a.317.317,0,0,1-.265-.4c.344-1.718.767-3.463,1.19-5.287a.317.317,0,0,1,.423-.238.344.344,0,0,1,.238.4C4.1,52.539,3.7,54.284,3.332,56a.343.343,0,0,1-.342.371ZM175.143,55.9A.265.265,0,0,1,175,55.87c-1.3-1.242-2.643-2.485-3.833-3.675a.316.316,0,0,1,0-.449.344.344,0,0,1,.476,0c1.269,1.19,2.643,2.432,3.833,3.674a.344.344,0,0,1,0,.476.317.317,0,0,1-.332,0Zm-7.783-7.28a.343.343,0,0,1-.106-.017c-1.3-1.19-2.643-2.353-3.992-3.489a.371.371,0,0,1,0-.476.344.344,0,0,1,.476,0l3.992,3.489a.37.37,0,0,1,0,.476.344.344,0,0,1-.37.017ZM5.605,46.115a.37.37,0,0,1-.211-.423c.555-1.718,1.137-3.41,1.771-5.023a.371.371,0,0,1,.423-.185.318.318,0,0,1,.185.423c-.608,1.586-1.19,3.278-1.745,4.97a.344.344,0,0,1-.423.238ZM159.086,41.7c-1.375-1.11-2.644-2.247-4.124-3.3a.344.344,0,0,1,.423-.529c1.348,1.084,2.643,2.194,4.124,3.331a.318.318,0,0,1,0,.45.372.372,0,0,1-.212.053.289.289,0,0,1-.211,0ZM9.332,36.149a.317.317,0,0,1-.158-.449c.74-1.613,1.56-3.2,2.406-4.732a.344.344,0,1,1,.581.317c-.846,1.507-1.639,3.093-2.406,4.705a.317.317,0,0,1-.423.158ZM151,35.171h-.185c-1.4-1.058-2.855-2.115-4.282-3.12a.344.344,0,0,1,.37-.555c1.454,1.031,2.881,2.088,4.309,3.146a.3.3,0,0,1-.209.529Zm-8.829-6.16-4.388-2.961a.326.326,0,0,1,.344-.555q2.247,1.427,4.441,2.934a.343.343,0,0,1,0,.449.262.262,0,0,1-.211.132.211.211,0,0,1-.185,0ZM14.514,27.03h-.185a.318.318,0,0,1,0-.45c1-1.507,2.062-2.934,3.146-4.309a.327.327,0,1,1,.449.476,44.83,44.83,0,0,0-3.093,4.229.291.291,0,0,1-.317.053Zm118.93-3.754h.026Zm-.159,0c-1.48-.925-3.013-1.824-4.547-2.644a.326.326,0,1,1,.344-.555c1.533.873,3.067,1.8,4.547,2.644a.317.317,0,0,1,0,.449.291.291,0,0,1-.185.106ZM21.107,18.787a.257.257,0,0,1-.2-.454c1.242-1.3,2.643-2.644,3.859-3.674a.336.336,0,1,1,.476.476,49.149,49.149,0,0,0-3.807,3.622.346.346,0,0,1-.195.06A.34.34,0,0,1,21.107,18.787Zm103.111-.8h-.158q-2.327-1.269-4.679-2.459a.344.344,0,0,1-.106-.529.317.317,0,0,1,.449-.132c1.534.767,3.12,1.613,4.679,2.459a.317.317,0,0,1,0,.449.293.293,0,0,1-.159.212ZM114.781,13.2h-.159c-1.56-.74-3.2-1.48-4.811-2.168a.343.343,0,0,1-.158-.449.316.316,0,0,1,.423-.158c1.639.714,3.251,1.427,4.837,2.194a.3.3,0,0,1-.106.581Zm-85.993-1.48a.318.318,0,0,1,0-.45c1.454-1.031,2.934-2.009,4.468-2.881a.344.344,0,0,1,.344.581c-1.506.872-3.013,1.824-4.414,2.829a.326.326,0,0,1-.106.053h-.046A.291.291,0,0,1,28.788,11.724ZM105.053,9c-1.639-.635-3.3-1.269-4.943-1.85a.343.343,0,0,1-.211-.423.37.37,0,0,1,.423-.185c1.665.581,3.331,1.216,4.97,1.85a.317.317,0,1,1,0,.634ZM37.909,6.384a.344.344,0,0,1,.158-.45c1.586-.714,3.225-1.4,4.917-2.009a.318.318,0,0,1,.423.185.344.344,0,0,1-.185.423c-1.665.608-3.3,1.3-4.864,2.009l-.158.027A.37.37,0,0,1,37.909,6.384Zm57.152-.9c-1.692-.529-3.384-1-5.076-1.454a.37.37,0,0,1-.238-.4.344.344,0,0,1,.45-.265c1.665.45,3.384.925,5.1,1.48a.317.317,0,1,1,0,.635ZM47.848,2.736a.344.344,0,0,1,.238-.423c1.665-.449,3.41-.846,5.287-1.19a.317.317,0,0,1,.4.238.343.343,0,0,1-.264.4c-1.745.344-3.463.74-5.128,1.19l-.211.027A.369.369,0,0,1,47.848,2.736Zm37.062.027c-1.745-.37-3.49-.714-5.287-.978a.343.343,0,0,1-.265-.4.318.318,0,0,1,.37-.265c1.692.291,3.463.608,5.287,1a.345.345,0,0,1,.265.4.317.317,0,0,1-.37.238ZM58.252,1A.29.29,0,0,1,58.158.78a.29.29,0,0,1,.291-.344c1.718-.185,3.489-.317,5.287-.37a.343.343,0,0,1,.317.317.317.317,0,0,1-.317.344,50.221,50.221,0,0,0-5.287.344h0A.291.291,0,0,1,58.252,1Zm10.8-.321a.344.344,0,1,1,0-.661,50.805,50.805,0,0,1,5.287.4.317.317,0,0,1,.291.37.344.344,0,0,1-.291.291C72.591.885,70.82.753,69.049.674Z" transform="translate(0.329 37.951)" fill="#d8d5db" stroke="#a71c45" stroke-width="0.25"/>
    </g>
    <g id="big-data" transform="translate(203.756 2013.269)">
      <path id="Path_1976" data-name="Path 1976" d="M121.624,25.605h-4.268V2.134A2.134,2.134,0,0,0,115.223,0H12.8a2.134,2.134,0,0,0-2.134,2.134V25.605H6.4a6.4,6.4,0,0,0-6.4,6.4v68.28a6.4,6.4,0,0,0,6.4,6.4H53.344v8.535H44.809a2.134,2.134,0,0,0-2.134,2.134v6.4H38.408v4.268h51.21v-4.268H85.35v-6.4a2.134,2.134,0,0,0-2.134-2.134H74.681v-8.535h46.943a6.4,6.4,0,0,0,6.4-6.4V32.006A6.4,6.4,0,0,0,121.624,25.605Zm-8.535,57.611H14.936V21.338h98.153Zm0-78.949v12.8H14.936V4.268ZM6.4,29.873h4.268V85.35A2.134,2.134,0,0,0,12.8,87.484h102.42a2.134,2.134,0,0,0,2.134-2.134V29.873h4.268a2.134,2.134,0,0,1,2.134,2.134V91.751H4.268V32.006A2.134,2.134,0,0,1,6.4,29.873Zm74.681,93.885H46.943V119.49h34.14Zm-10.669-8.535h-12.8v-8.535h12.8Zm51.21-12.8H6.4a2.134,2.134,0,0,1-2.134-2.134V96.019h119.49v4.268A2.134,2.134,0,0,1,121.624,102.42Zm0,0" fill="#a71c45"/>
      <path id="Path_1977" data-name="Path 1977" d="M72,32h4.268v4.268H72Zm0,0" transform="translate(-52.796 -23.465)" fill="#a71c45"/>
      <path id="Path_1978" data-name="Path 1978" d="M104,32h4.268v4.268H104Zm0,0" transform="translate(-76.261 -23.465)" fill="#a71c45"/>
      <path id="Path_1979" data-name="Path 1979" d="M136,32h4.268v4.268H136Zm0,0" transform="translate(-99.726 -23.465)" fill="#a71c45"/>
      <path id="Path_1980" data-name="Path 1980" d="M113.076,98.134A2.134,2.134,0,0,0,110.943,96h-8.535a2.134,2.134,0,0,0-2.134,2.134v29.873H96.006V104.535a2.134,2.134,0,0,0-2.134-2.134H85.338a2.134,2.134,0,0,0-2.134,2.134v23.471H78.936V115.2A2.134,2.134,0,0,0,76.8,113.07H68.268a2.134,2.134,0,0,0-2.134,2.134v12.8H64v4.268h51.21v-4.268h-2.134ZM70.4,128.006V117.338h4.268v10.669Zm17.07,0V106.669h4.268v21.338Zm17.07,0V100.268h4.268v27.739Zm0,0" transform="translate(-46.93 -70.395)" fill="#a71c45"/>
      <path id="Path_1981" data-name="Path 1981" d="M296.006,190.936H283.2v-12.8A2.134,2.134,0,0,0,281.07,176a17.07,17.07,0,1,0,17.07,17.07A2.134,2.134,0,0,0,296.006,190.936ZM281.07,205.873a12.8,12.8,0,0,1-2.134-25.428V193.07a2.134,2.134,0,0,0,2.134,2.134H293.7A12.823,12.823,0,0,1,281.07,205.873Zm0,0" transform="translate(-193.586 -129.057)" fill="#a71c45"/>
      <path id="Path_1982" data-name="Path 1982" d="M346.134,152A2.134,2.134,0,0,0,344,154.134V169.07a2.134,2.134,0,0,0,2.134,2.134H361.07a2.134,2.134,0,0,0,2.134-2.134A17.09,17.09,0,0,0,346.134,152Zm2.134,14.936V156.445a12.839,12.839,0,0,1,10.492,10.492Zm0,0" transform="translate(-252.249 -111.459)" fill="#a71c45"/>
      <path id="Path_1983" data-name="Path 1983" d="M78.4,248a6.4,6.4,0,1,0,6.4,6.4A6.4,6.4,0,0,0,78.4,248Zm0,8.535a2.134,2.134,0,1,1,2.134-2.134A2.134,2.134,0,0,1,78.4,256.535Zm0,0" transform="translate(-52.796 -181.854)" fill="#a71c45"/>
      <path id="Path_1984" data-name="Path 1984" d="M280,96h4.268v4.268H280Zm0,0" transform="translate(-205.319 -70.395)" fill="#a71c45"/>
      <path id="Path_1985" data-name="Path 1985" d="M312,96h25.605v4.268H312Zm0,0" transform="translate(-228.784 -70.395)" fill="#a71c45"/>
      <path id="Path_1986" data-name="Path 1986" d="M280,128h8.535v4.268H280Zm0,0" transform="translate(-205.319 -93.86)" fill="#a71c45"/>
      <path id="Path_1987" data-name="Path 1987" d="M136,264h32.006v4.268H136Zm0,0" transform="translate(-99.726 -193.586)" fill="#a71c45"/>
    </g>
  </g>
</svg>
