<svg xmlns="http://www.w3.org/2000/svg" width="269.064" height="309.662" viewBox="0 0 269.064 309.662">
  <g id="Ditigital" transform="translate(-137.082 -1919.068)">
    <g id="Group_660" data-name="Group 660" transform="translate(137.082 1919.068)">
      <path id="Path" d="M247.514,193.091a99.861,99.861,0,0,1-32.167,57.344A121.9,121.9,0,0,1,196.5,264.089c-23.62,14.281-52.893,22.938-83.368,30.038l-5.216,1.174A52.426,52.426,0,0,1,94.1,296.557c-48.47-2.021-81.484-73.865-91.751-149.478C-6.6,79.768,8.388,3.527,75.508.086c25.2-1.256,54.614,11.305,81.921,31.512,1.966,1.447,3.932,2.949,5.871,4.478h0l1.2.956C215.483,77.665,257.126,143.556,247.514,193.091Z" transform="translate(20.161 0)" fill="#fedce6"/>
      <path id="Path-2" data-name="Path" d="M29.778,19.108c3.8,7.673,5.188,17.394-2.43,20.507-8.52,3.5-22.119-2.13-26.051-14.937-2.54-8.192-1.666-19.606,5.461-24C12.575-3.093,25.245,9.714,29.778,19.108Z" transform="translate(0 237.363)" fill="#f5f9fd"/>
      <path id="Shape" d="M100.873,270.324a46.14,46.14,0,0,1-5.462-.655.346.346,0,0,1,.11-.683,45.809,45.809,0,0,0,5.461.655.33.33,0,0,1,.242.106.326.326,0,0,1,.086.25.354.354,0,0,1-.436.327Zm5.461,0a.327.327,0,0,1-.328-.327.3.3,0,0,1,.3-.355,44.57,44.57,0,0,0,5.461-.71.355.355,0,0,1,.41.273.328.328,0,0,1-.273.382,45.917,45.917,0,0,1-5.461.737Zm-21.327-3.8a.355.355,0,0,1-.191-.437.382.382,0,0,1,.464-.191,49.725,49.725,0,0,0,5.079,1.857.355.355,0,0,1,.246.437.382.382,0,0,1-.437.191v.027A51.316,51.316,0,0,1,85.008,266.528ZM116.738,268a.355.355,0,0,1,.219-.437c.792-.246,1.611-.546,2.43-.846l2.731-1.011a.328.328,0,0,1,.437.191.3.3,0,0,1-.191.437l-2.731,1.038c-.819.3-1.666.6-2.485.846l-.082.028h-.011A.328.328,0,0,1,116.738,268Zm10.24-3.823a.3.3,0,0,1,.191-.437l5.079-2.021a.337.337,0,1,1,.246.628l-5.079,2.021-.137.027A.328.328,0,0,1,126.978,264.18Zm-46.859-.055v.028h-.164c-1.584-.847-3.167-1.8-4.724-2.731a.355.355,0,0,1,0-.464.328.328,0,0,1,.464,0,48.3,48.3,0,0,0,4.669,2.73.251.251,0,1,1-.246.437Zm57.044-4.014a.354.354,0,0,1,.164-.464c1.693-.683,3.386-1.393,5.052-2.13a.382.382,0,0,1,.437.191.327.327,0,0,1-.164.436c-1.693.737-3.359,1.448-5.052,2.13l-.137.027h-.02A.3.3,0,0,1,137.164,260.111Zm-66.356-1.884c-1.42-1.092-2.731-2.239-4.26-3.468a.339.339,0,0,1,.437-.519c1.392,1.2,2.731,2.376,4.233,3.441a.295.295,0,0,1-.273.519l.055.027a.3.3,0,0,1-.191,0Zm76.35-2.458a.328.328,0,0,1,.164-.437c1.665-.764,3.331-1.5,4.97-2.293a.355.355,0,1,1,.273.628l-4.97,2.294-.137.028A.328.328,0,0,1,147.158,255.769Zm9.913-4.615a.328.328,0,0,1,.164-.464l4.861-2.458a.355.355,0,1,1,.328.6c-1.639.846-3.249,1.666-4.915,2.458l-.137.055h0A.327.327,0,0,1,157.07,251.155Zm-94.618-.082q-1.912-1.885-3.85-3.932a.3.3,0,0,1,0-.465.355.355,0,0,1,.492,0c1.283,1.365,2.567,2.731,3.823,3.905a.3.3,0,0,1,0,.464.274.274,0,0,1-.246,0v.028a.3.3,0,0,1-.218,0Zm104.34-4.943a.354.354,0,0,1,.136-.464c1.611-.874,3.222-1.775,4.752-2.731a.356.356,0,0,1,.464,0,.328.328,0,0,1,0,.464l-4.779,2.731-.273.191A.382.382,0,0,1,166.792,246.13ZM55.134,243.1a.38.38,0,0,1-.273,0c-1.174-1.338-2.321-2.73-3.468-4.233a.33.33,0,1,1,.519-.409c1.147,1.447,2.321,2.731,3.468,4.205a.355.355,0,0,1,0,.492Zm121.051-2.43a.328.328,0,0,1,0-.465c1.584-.983,3.14-1.966,4.615-2.949a.328.328,0,1,1,.464.464c-1.475.983-3.031,1.966-4.615,2.949l-.191.164h-.006A.3.3,0,0,1,176.185,240.669Zm9.148-5.871a.328.328,0,0,1,0-.464c1.5-1.092,2.976-2.157,4.4-3.249a.328.328,0,1,1,.465.464c-1.42,1.093-2.895,2.185-4.424,3.249a.27.27,0,0,1-.082-.027l-.082.027a.326.326,0,0,1-.273,0Zm-137.272-.436c-1.065-1.42-2.13-2.922-3.167-4.451a.382.382,0,0,1,0-.492.355.355,0,0,1,.492,0c1.038,1.5,2.1,3,3.14,4.451a.327.327,0,0,1,0,.464.358.358,0,0,1-.11.164l-.082.028A.329.329,0,0,1,48.061,234.361Zm145.955-6.335a.327.327,0,0,1,0-.464c1.392-1.174,2.73-2.376,4.123-3.577a.327.327,0,0,1,.465,0,.354.354,0,0,1,0,.491l-4.151,3.577a.35.35,0,0,1-.082.082l-.082.027A.381.381,0,0,1,194.017,228.026ZM41.863,225.268c-.956-1.5-1.939-3.086-2.895-4.642a.355.355,0,0,1,0-.464.328.328,0,0,1,.464,0c.928,1.556,1.911,3.113,2.867,4.642a.356.356,0,0,1,0,.465l-.137.164A.383.383,0,0,1,41.863,225.268ZM202.4,220.789a.243.243,0,0,1-.218,0,.3.3,0,0,1,0-.464c1.283-1.311,2.567-2.731,3.768-3.932a.328.328,0,0,1,.465,0,.355.355,0,0,1,0,.492c-1.2,1.311-2.485,2.731-3.8,3.96l-.034,0A.327.327,0,0,1,202.4,220.789Zm-166.162-4.86c-.874-1.557-1.775-3.168-2.731-4.806a.355.355,0,0,1,.6-.328c.874,1.638,1.775,3.249,2.731,4.779a.356.356,0,0,1,0,.464l-.3.055h0A.355.355,0,0,1,36.238,215.929Zm173.589-3.222h-.273a.355.355,0,0,1,0-.492c1.147-1.42,2.266-2.731,3.331-4.315a.328.328,0,1,1,.465.464c-1.065,1.447-2.185,2.922-3.359,4.342a.3.3,0,0,1-.164,0ZM31.049,206.262c-.846-1.638-1.666-3.3-2.43-4.915a.4.4,0,0,1,.6-.437l2.43,4.915a.355.355,0,0,1-.137.464l-.164.164h0A.327.327,0,0,1,31.049,206.262Zm185.2-2.348-.055-.027h-.164a.328.328,0,0,1,0-.464c.983-1.529,1.912-3.086,2.731-4.669a.355.355,0,1,1,.6.328c-.9,1.584-1.857,3.167-2.73,4.7a.383.383,0,0,1-.382.137ZM26.3,196.4c-.764-1.666-1.5-3.331-2.239-5.024a.338.338,0,1,1,.628-.246c.71,1.666,1.475,3.332,2.212,4.97a.356.356,0,0,1-.164.465l-.137.027h0A.328.328,0,0,1,26.3,196.4Zm195.217-2.048a.355.355,0,0,1-.164-.464c.792-1.611,1.529-3.277,2.239-4.97a.328.328,0,0,1,.437-.164.355.355,0,0,1,.191.437c-.71,1.693-1.447,3.386-2.239,5a.355.355,0,0,1-.464.164Zm-199.641-8q-1.065-2.539-2.048-5.079a.328.328,0,0,1,.191-.464.354.354,0,0,1,.436.219c.656,1.693,1.338,3.386,2.048,5.051a.383.383,0,0,1-.191.464h-.157A.3.3,0,0,1,21.874,186.356Zm203.791-2.1a.355.355,0,0,1-.218-.437c.6-1.72,1.12-3.468,1.611-5.188a.338.338,0,1,1,.655.164c-.491,1.748-1.038,3.523-1.611,5.243a.355.355,0,0,1-.327.218ZM18.133,176.361a.355.355,0,0,1-.327-.219c-.628-1.693-1.256-3.413-1.857-5.133a.337.337,0,0,1,.628-.246c.628,1.72,1.229,3.441,1.884,5.161a.355.355,0,0,1-.219.437Zm210.4-2.731a.355.355,0,0,1-.273-.409c.382-1.8.737-3.6,1.011-5.461a.355.355,0,0,1,.409-.273.328.328,0,0,1,.273.382c-.273,1.775-.628,3.577-1.011,5.461a.383.383,0,0,1-.246.546ZM14.31,165.821c-.573-1.72-1.147-3.441-1.693-5.188a.355.355,0,0,1,.655-.219c.546,1.748,1.12,3.468,1.693,5.189a.328.328,0,0,1-.219.437l-.109.027A.382.382,0,0,1,14.31,165.821Zm215.818-2.946a.3.3,0,0,1-.066-.249c.191-1.775.355-3.6.464-5.461a.328.328,0,0,1,.355-.328.382.382,0,0,1,.327.355,50.75,50.75,0,0,1-.464,5.461.355.355,0,0,1-.273.3l-.109.027h0A.3.3,0,0,1,230.127,162.874ZM11.252,155.635a.354.354,0,0,1-.327-.219c-.519-1.747-1.038-3.522-1.53-5.27a.342.342,0,0,1,.656-.191c.492,1.775,1.01,3.523,1.529,5.243a.355.355,0,0,1-.219.437ZM230.717,151.7c0-1.8-.137-3.632-.273-5.461a.328.328,0,0,1,.3-.382.356.356,0,0,1,.382.328c0,1.8.246,3.659.273,5.461a.355.355,0,0,1-.328.355l-.027.028A.328.328,0,0,1,230.717,151.7ZM8.03,144.876V144.6c-.464-1.775-.928-3.55-1.365-5.461a.351.351,0,0,1,.683-.164c.437,1.775.874,3.55,1.338,5.3v.273a.355.355,0,0,1-.246.437l-.082.137H8.346A.327.327,0,0,1,8.03,144.876Zm221.732-4.041c-.273-1.748-.6-3.55-.983-5.461a.335.335,0,1,1,.655-.137c.409,1.8.737,3.6,1.011,5.461a.328.328,0,0,1-.273.382l-.055.027h-.01A.354.354,0,0,1,229.761,140.835Zm-224.3-6.881c-.409-1.8-.792-3.6-1.119-5.461A.335.335,0,1,1,5,128.356c.355,1.747.737,3.55,1.12,5.461a.328.328,0,0,1-.246.409H5.785A.328.328,0,0,1,5.462,133.954Zm222.114-3.714c-.492-1.693-1.038-3.468-1.611-5.188a.346.346,0,1,1,.655-.219c.574,1.748,1.12,3.523,1.611,5.243a.328.328,0,0,1-.246.409l-.082.028h0A.328.328,0,0,1,227.576,130.24ZM3.551,123.5a.328.328,0,0,1-.328-.273c-.328-1.8-.628-3.631-.9-5.461A.346.346,0,1,1,3,117.651c.273,1.8.574,3.6.874,5.461a.355.355,0,0,1-.273.41Zm220.366-3.577c-.655-1.666-1.338-3.359-2.075-5.052a.326.326,0,0,1,.164-.436.354.354,0,0,1,.464.164c.737,1.693,1.448,3.386,2.076,5.079a.328.328,0,0,1-.191.437l-.109.028A.355.355,0,0,1,223.917,119.918ZM1.558,112.381c-.218-1.8-.437-3.632-.628-5.461a.328.328,0,0,1,.3-.382.355.355,0,0,1,.382.3c.191,1.8.409,3.632.628,5.461a.328.328,0,0,1-.3.382H1.909A.355.355,0,0,1,1.558,112.381ZM219.6,109.924c-.764-1.584-1.611-3.222-2.485-4.861a.3.3,0,1,1,.464-.328c.874,1.639,1.72,3.277,2.512,4.888a.355.355,0,0,1-.164.464v.028A.41.41,0,0,1,219.6,109.924ZM.793,101.814l-.027-.028a.327.327,0,0,1-.328-.3c0-1.857-.273-3.713-.355-5.461a.355.355,0,0,1,.328-.355A.328.328,0,0,1,.766,96c0,1.775.218,3.6.355,5.461a.328.328,0,0,1-.326.355Zm213.677-1.5c-.9-1.556-1.857-3.113-2.731-4.669a.382.382,0,0,1,0-.492.356.356,0,0,1,.465,0c.983,1.584,1.939,3.14,2.73,4.7a.327.327,0,0,1,0,.464l-.191.164h-.005A.3.3,0,0,1,214.469,100.311Zm-5.817-9.12c-.983-1.475-2.021-2.977-3.085-4.506a.326.326,0,0,1,0-.464.355.355,0,0,1,.492,0c1.092,1.5,2.13,3.031,3.113,4.505a.356.356,0,0,1,0,.464.273.273,0,0,1-.219,0,.438.438,0,0,1-.3,0ZM.356,90.863H.329A.328.328,0,0,1,0,90.536V85.047a.328.328,0,0,1,.328-.328.328.328,0,0,1,.355.328v5.461a.327.327,0,0,1-.326.355Zm202.071-8.574c-1.12-1.475-2.239-2.922-3.359-4.315a.338.338,0,1,1,.492-.464c1.093,1.393,2.239,2.731,3.359,4.315a.355.355,0,0,1,0,.492l-.219-.027a.327.327,0,0,1-.273,0ZM.329,79.913A.328.328,0,0,1,0,79.558C0,77.729.192,75.9.329,74.1a.328.328,0,0,1,.355-.328.382.382,0,0,1,.328.382c0,1.775-.246,3.632-.328,5.461a.355.355,0,0,1-.35.3Zm195.162-6.171-3.577-4.151a.338.338,0,1,1,.492-.464c1.174,1.311,2.376,2.73,3.577,4.123a.355.355,0,0,1,0,.492.3.3,0,0,1-.219,0,.355.355,0,0,1-.273,0ZM1.2,69.018a.355.355,0,0,1-.3-.382c.218-1.829.464-3.659.764-5.461a.328.328,0,0,1,.382-.273.3.3,0,0,1,.273.382c-.273,1.748-.519,3.577-.737,5.461a.356.356,0,0,1-.346.275ZM188.5,65.55a.3.3,0,0,1-.246,0c-1.229-1.338-2.512-2.73-3.768-3.959a.355.355,0,0,1,0-.492.382.382,0,0,1,.492,0c1.256,1.31,2.539,2.73,3.768,3.987a.355.355,0,0,1,0,.492.432.432,0,0,1-.076.007A.441.441,0,0,1,188.5,65.55ZM3.06,58.232a.327.327,0,0,1-.273-.409c.355-1.775.792-3.577,1.229-5.461a.327.327,0,0,1,.437-.246.355.355,0,0,1,.246.409c-.464,1.748-.874,3.55-1.256,5.325a.355.355,0,0,1-.353.384Zm177.861-.491a.274.274,0,0,1-.148-.028c-1.338-1.283-2.73-2.567-3.959-3.8a.326.326,0,0,1,0-.464.355.355,0,0,1,.492,0c1.31,1.229,2.73,2.512,3.959,3.8a.355.355,0,0,1,0,.492.328.328,0,0,1-.343,0Zm-8.04-7.52a.354.354,0,0,1-.109-.017c-1.338-1.229-2.73-2.431-4.123-3.6a.383.383,0,0,1,0-.492.355.355,0,0,1,.492,0l4.123,3.6a.382.382,0,0,1,0,.492.355.355,0,0,1-.382.017ZM5.79,47.637a.382.382,0,0,1-.218-.437c.573-1.775,1.174-3.523,1.829-5.189a.383.383,0,0,1,.437-.191.328.328,0,0,1,.191.437C7.4,43.9,6.8,45.643,6.227,47.391a.355.355,0,0,1-.437.246Zm158.544-4.56c-1.42-1.147-2.731-2.321-4.26-3.414a.355.355,0,0,1,.437-.546c1.392,1.12,2.73,2.266,4.26,3.441a.328.328,0,0,1,0,.464.384.384,0,0,1-.219.055.3.3,0,0,1-.218,0ZM9.64,37.342a.328.328,0,0,1-.164-.464c.765-1.666,1.611-3.3,2.485-4.888a.355.355,0,1,1,.6.328c-.874,1.557-1.693,3.195-2.485,4.861a.328.328,0,0,1-.437.164Zm146.338-1.01h-.191c-1.448-1.093-2.949-2.185-4.424-3.222a.355.355,0,0,1,.382-.574c1.5,1.065,2.976,2.157,4.451,3.25a.314.314,0,0,1-.216.546Zm-9.121-6.363-4.533-3.058a.337.337,0,0,1,.355-.574q2.321,1.475,4.587,3.031a.354.354,0,0,1,0,.464.271.271,0,0,1-.218.137.218.218,0,0,1-.191,0ZM14.993,27.921H14.8a.328.328,0,0,1,0-.464c1.038-1.557,2.13-3.031,3.25-4.451a.338.338,0,1,1,.464.492,46.309,46.309,0,0,0-3.195,4.369.3.3,0,0,1-.328.055Zm122.854-3.878h.027Zm-.164,0c-1.529-.956-3.113-1.885-4.7-2.731a.337.337,0,1,1,.355-.574c1.584.9,3.168,1.857,4.7,2.731a.327.327,0,0,1,0,.464.3.3,0,0,1-.191.11ZM21.8,19.406a.266.266,0,0,1-.2-.469c1.283-1.338,2.73-2.731,3.987-3.8a.348.348,0,1,1,.492.492,50.77,50.77,0,0,0-3.932,3.741.357.357,0,0,1-.2.062A.352.352,0,0,1,21.8,19.406Zm106.513-.824h-.164q-2.4-1.311-4.834-2.54a.355.355,0,0,1-.109-.546.328.328,0,0,1,.464-.137c1.584.792,3.222,1.666,4.834,2.54a.328.328,0,0,1,0,.464.3.3,0,0,1-.164.219Zm-9.748-4.943H118.4c-1.611-.765-3.3-1.529-4.97-2.239a.354.354,0,0,1-.164-.464.327.327,0,0,1,.437-.164c1.693.737,3.359,1.475,5,2.266a.31.31,0,0,1-.109.6Zm-88.83-1.529a.328.328,0,0,1,0-.464c1.5-1.065,3.031-2.075,4.615-2.976a.355.355,0,0,1,.355.6c-1.556.9-3.113,1.884-4.56,2.922a.337.337,0,0,1-.11.055h-.047A.3.3,0,0,1,29.738,12.111ZM108.519,9.3c-1.693-.656-3.413-1.311-5.106-1.912a.355.355,0,0,1-.218-.437.382.382,0,0,1,.437-.191c1.72.6,3.441,1.256,5.133,1.912a.328.328,0,1,1,0,.655Zm-69.359-2.7a.355.355,0,0,1,.164-.464c1.639-.737,3.332-1.447,5.079-2.075a.328.328,0,0,1,.437.191.355.355,0,0,1-.191.437c-1.72.628-3.414,1.338-5.025,2.075l-.164.028A.383.383,0,0,1,39.159,6.595ZM98.2,5.666c-1.747-.546-3.5-1.038-5.243-1.5a.382.382,0,0,1-.246-.409.355.355,0,0,1,.464-.273c1.72.464,3.5.956,5.27,1.529a.328.328,0,1,1,0,.656Zm-48.77-2.84a.355.355,0,0,1,.246-.437c1.72-.464,3.523-.874,5.461-1.229a.328.328,0,0,1,.409.246.354.354,0,0,1-.273.409c-1.8.355-3.577.765-5.3,1.229l-.218.028A.382.382,0,0,1,49.427,2.826Zm38.284.028c-1.8-.382-3.6-.737-5.461-1.011a.355.355,0,0,1-.273-.409.328.328,0,0,1,.382-.273c1.747.3,3.577.628,5.461,1.038a.356.356,0,0,1,.273.41.328.328,0,0,1-.382.246ZM60.174,1.028a.3.3,0,0,1-.1-.223.3.3,0,0,1,.3-.355c1.775-.191,3.6-.328,5.461-.382A.354.354,0,0,1,66.166.4a.328.328,0,0,1-.327.355,51.878,51.878,0,0,0-5.461.355h0A.3.3,0,0,1,60.174,1.028ZM71.327.7a.355.355,0,1,1,0-.683,52.481,52.481,0,0,1,5.462.409.328.328,0,0,1,.3.382.356.356,0,0,1-.3.3C74.986.915,73.156.778,71.327.7Z" transform="translate(0.34 39.203)" fill="#d8d5db" stroke="#a71c45" stroke-width="0.25"/>
    </g>
    <g id="interaction" transform="translate(200.917 2000.907)">
      <path id="Path_1970" data-name="Path 1970" d="M120.993,450.251v6.056a2.5,2.5,0,1,0,5,0v-6.056a2.5,2.5,0,1,0-5,0Z" transform="translate(-80.841 -298.619)" fill="#a71c45"/>
      <path id="Path_1971" data-name="Path 1971" d="M59,92.807c-6.019-8.362-17.588-1.022-13.79,7.282l10.3,23.567c.008.02.017.039.026.059,2.027,4.323,4.713,6.567,7.622,9.449,1.043,1.033,1.283,3.281,1.335,5.653a5.375,5.375,0,0,0-4.8,5.337v21.009a5.374,5.374,0,0,0,5.368,5.368H78.2a2.5,2.5,0,1,0,0-5H65.053a.372.372,0,0,1-.372-.372V144.155a.372.372,0,0,1,.372-.372H103a.372.372,0,0,1,.372.372v21.009a.372.372,0,0,1-.372.372H89.858a2.5,2.5,0,1,0,0,5H103a5.374,5.374,0,0,0,5.368-5.368V144.155a5.372,5.372,0,0,0-4.568-5.3v-1.991c0-5.919,7.5-5.98,7.491-16.31l0-4.72a2.5,2.5,0,0,0-2.5-2.5h0a2.5,2.5,0,0,0-2.5,2.5l0,4.72c0,3.958-1.476,5.489-3.349,7.426-1.847,1.911-4.145,4.289-4.143,8.881v1.923H69.484c-.064-3.27-.439-6.817-2.817-9.172-2.855-2.828-4.894-4.473-6.6-8L49.774,98.067l-.02-.046c-1.3-2.821,2.639-5.862,5.2-2.278.015.021.03.042.046.062l8.334,10.94a3.394,3.394,0,0,0,6.088-2.054V62.459a2.726,2.726,0,1,1,5.451,0c0,35.7,0,28.243,0,38.135a2.5,2.5,0,1,0,5,0c0-10.513.076-3.9.076-12.731a2.727,2.727,0,0,1,5.454,0V100.59a2.5,2.5,0,0,0,5,0V89.267a2.727,2.727,0,1,1,5.454,0v11.322a2.5,2.5,0,0,0,5,0V90.324a2.727,2.727,0,1,1,5.454,0c0,6.456-.017,7.4-.012,13.853a2.5,2.5,0,0,0,2.5,2.5h0a2.5,2.5,0,0,0,2.5-2.5c0-1.436.012-5.162.012-13.85a7.719,7.719,0,0,0-12.379-6.158,7.711,7.711,0,0,0-10.266-1.192,7.778,7.778,0,0,0-2.1-1.788,27.47,27.47,0,0,0,12.929-20.9h15.629V99.371a6.311,6.311,0,0,0,6.3,6.3h10v3.232a6.673,6.673,0,0,0,6.665,6.665h40.633a6.673,6.673,0,0,0,6.666-6.665V97.447a6.673,6.673,0,0,0-6.666-6.665H138.076a6.673,6.673,0,0,0-6.665,6.665v3.232h-10a1.309,1.309,0,0,1-1.308-1.308V75.415h11.3v3.232a6.673,6.673,0,0,0,6.665,6.665h40.633a6.673,6.673,0,0,0,6.666-6.665V67.186a6.673,6.673,0,0,0-6.666-6.666H138.076a6.673,6.673,0,0,0-6.665,6.666v3.232h-11.3V45.154h11.3v3.232a6.673,6.673,0,0,0,6.665,6.666h40.633a6.673,6.673,0,0,0,6.666-6.666V36.926a6.673,6.673,0,0,0-6.666-6.665H138.076a6.673,6.673,0,0,0-6.665,6.665v3.232h-11.3V16.2a1.309,1.309,0,0,1,1.308-1.308h10v3.232a6.673,6.673,0,0,0,6.665,6.665h40.633a6.673,6.673,0,0,0,6.666-6.665V6.665A6.674,6.674,0,0,0,178.709,0H138.076a6.673,6.673,0,0,0-6.665,6.665V9.9h-10a6.311,6.311,0,0,0-6.3,6.3V55.289H99.481A27.524,27.524,0,1,0,64.423,84.227V99.934Zm77.412,4.64a1.692,1.692,0,0,1,1.669-1.669h40.633a1.692,1.692,0,0,1,1.67,1.669v11.461a1.692,1.692,0,0,1-1.67,1.669H138.076a1.692,1.692,0,0,1-1.669-1.669V97.447Zm0-30.261a1.692,1.692,0,0,1,1.669-1.67h40.633a1.692,1.692,0,0,1,1.67,1.67V78.647a1.692,1.692,0,0,1-1.67,1.669H138.076a1.692,1.692,0,0,1-1.669-1.669V67.187Zm0-30.261a1.692,1.692,0,0,1,1.669-1.669h40.633a1.692,1.692,0,0,1,1.67,1.669V48.387a1.692,1.692,0,0,1-1.67,1.67H138.076a1.692,1.692,0,0,1-1.669-1.67V36.926Zm0-30.261A1.692,1.692,0,0,1,138.076,5h40.633a1.692,1.692,0,0,1,1.67,1.669V18.126a1.692,1.692,0,0,1-1.67,1.669H138.076a1.692,1.692,0,0,1-1.669-1.669V6.665ZM72.136,54.728h0a7.723,7.723,0,0,0-7.708,7.733v4.925a12.283,12.283,0,1,1,15.446-.125l0-4.81A7.739,7.739,0,0,0,72.136,54.728ZM49.543,57.787A22.53,22.53,0,1,1,79.87,78.925V73.2a17.272,17.272,0,1,0-15.445.077v5.708a22.641,22.641,0,0,1-14.881-21.2Z" transform="translate(-44.456 0)" fill="#a71c45"/>
    </g>
  </g>
</svg>
