<svg id="facebook_1_" data-name="facebook (1)" xmlns="http://www.w3.org/2000/svg" width="23.809" height="23.809" viewBox="0 0 23.809 23.809">
  <g id="Group_666" data-name="Group 666">
    <path id="Path_2002" data-name="Path 2002" d="M21.019,0H2.79A2.793,2.793,0,0,0,0,2.79V21.019a2.793,2.793,0,0,0,2.79,2.79H21.019a2.793,2.793,0,0,0,2.79-2.79V2.79A2.793,2.793,0,0,0,21.019,0Zm.93,21.019a.931.931,0,0,1-.93.93h-5.3v-7.58h2.873l.475-2.883H15.717v-2a1.372,1.372,0,0,1,1.4-1.4h1.907V5.208H17.112a4.277,4.277,0,0,0-4.277,4.286v1.991H10.044v2.883h2.791v7.58H2.79a.931.931,0,0,1-.93-.93V2.79a.931.931,0,0,1,.93-.93H21.019a.931.931,0,0,1,.93.93Z" fill="#fff"/>
  </g>
</svg>
