<svg xmlns="http://www.w3.org/2000/svg" width="285.448" height="328.511" viewBox="0 0 285.448 328.511">
  <g id="it-pro" transform="translate(-137.983 -1921.725)">
    <g id="it-pr" transform="translate(137.983 1921.724)">
      <path id="Path" d="M262.586,204.849a105.942,105.942,0,0,1-34.126,60.836,129.322,129.322,0,0,1-19.989,14.485c-25.059,15.151-56.114,24.335-88.444,31.867l-5.533,1.246a55.618,55.618,0,0,1-14.659,1.333C48.413,312.471,13.389,236.252,2.5,156.035-7.006,84.625,8.9,3.742,80.106.091c26.739-1.333,57.939,11.993,86.909,33.431,2.086,1.535,4.172,3.129,6.228,4.751h0l1.275,1.014C228.6,82.394,272.783,152.3,262.586,204.849Z" transform="translate(21.389 0)" fill="#fedce6"/>
      <path id="Path-2" data-name="Path" d="M31.591,20.271c4.027,8.14,5.5,18.454-2.578,21.756-9.039,3.708-23.465-2.26-27.637-15.846C-1.318,17.49-.391,5.381,7.17.717,13.34-3.281,26.782,10.306,31.591,20.271Z" transform="translate(0 251.817)" fill="#f5f9fd"/>
      <path id="Shape" d="M107.015,286.785a48.953,48.953,0,0,1-5.794-.7.367.367,0,0,1,.116-.724,48.6,48.6,0,0,0,5.794.7.35.35,0,0,1,.257.112.346.346,0,0,1,.091.265.376.376,0,0,1-.463.347Zm5.794,0a.347.347,0,0,1-.348-.347.319.319,0,0,1,.319-.377,47.285,47.285,0,0,0,5.794-.753.377.377,0,0,1,.435.289.348.348,0,0,1-.29.406,48.709,48.709,0,0,1-5.794.782Zm-22.625-4.027a.377.377,0,0,1-.2-.464.406.406,0,0,1,.492-.2,52.766,52.766,0,0,0,5.389,1.97.377.377,0,0,1,.261.464.406.406,0,0,1-.464.2v.029A54.432,54.432,0,0,1,90.184,282.758Zm33.662,1.564a.377.377,0,0,1,.232-.464c.84-.261,1.709-.579,2.578-.9l2.9-1.072a.348.348,0,0,1,.464.2.318.318,0,0,1-.2.464l-2.9,1.1c-.869.319-1.767.637-2.636.9l-.087.029h-.011A.348.348,0,0,1,123.846,284.323Zm10.864-4.056a.319.319,0,0,1,.2-.464l5.388-2.144a.358.358,0,1,1,.261.666l-5.388,2.144-.145.029A.348.348,0,0,1,134.71,280.267ZM85,280.209v.029h-.174c-1.68-.9-3.36-1.912-5.012-2.9a.377.377,0,0,1,0-.492.348.348,0,0,1,.492,0,51.235,51.235,0,0,0,4.954,2.9.266.266,0,1,1-.261.464Zm60.518-4.259a.376.376,0,0,1,.174-.492c1.8-.724,3.592-1.477,5.36-2.259a.4.4,0,0,1,.464.2.347.347,0,0,1-.174.463c-1.8.782-3.564,1.536-5.36,2.26l-.145.029h-.022A.318.318,0,0,1,145.516,275.95Zm-70.4-2c-1.506-1.159-2.9-2.375-4.519-3.679a.36.36,0,0,1,.464-.551c1.477,1.274,2.9,2.52,4.49,3.65a.313.313,0,0,1-.289.551l.058.029a.321.321,0,0,1-.2,0Zm81-2.607a.348.348,0,0,1,.174-.464c1.767-.811,3.534-1.593,5.272-2.433a.376.376,0,1,1,.289.666l-5.272,2.434-.145.029A.348.348,0,0,1,156.119,271.344Zm10.516-4.9a.348.348,0,0,1,.174-.492l5.157-2.607a.377.377,0,1,1,.348.637c-1.739.9-3.447,1.767-5.215,2.607l-.145.058h0A.347.347,0,0,1,166.635,266.448Zm-100.38-.087q-2.028-2-4.085-4.172a.318.318,0,0,1,0-.493.377.377,0,0,1,.521,0c1.362,1.449,2.723,2.9,4.055,4.143a.318.318,0,0,1,0,.492.29.29,0,0,1-.261,0v.029a.323.323,0,0,1-.232,0Zm110.693-5.244a.376.376,0,0,1,.144-.492c1.709-.927,3.419-1.883,5.041-2.9a.377.377,0,0,1,.493,0,.348.348,0,0,1,0,.492l-5.07,2.9-.289.2A.405.405,0,0,1,176.948,261.118ZM58.491,257.9a.4.4,0,0,1-.29,0c-1.245-1.419-2.462-2.9-3.679-4.49a.35.35,0,1,1,.55-.434c1.217,1.535,2.463,2.9,3.679,4.461a.377.377,0,0,1,0,.521Zm128.423-2.578a.348.348,0,0,1,0-.493c1.68-1.043,3.332-2.086,4.9-3.129a.348.348,0,1,1,.492.493c-1.564,1.043-3.216,2.086-4.9,3.129l-.2.174H187.2A.318.318,0,0,1,186.914,255.324Zm9.7-6.229a.347.347,0,0,1,0-.492c1.593-1.159,3.157-2.289,4.664-3.447a.348.348,0,1,1,.493.492c-1.507,1.159-3.071,2.318-4.693,3.447a.286.286,0,0,1-.087-.029l-.087.029a.346.346,0,0,1-.289,0Zm-145.631-.463c-1.13-1.506-2.259-3.1-3.36-4.722a.405.405,0,0,1,0-.521.377.377,0,0,1,.521,0c1.1,1.594,2.23,3.187,3.332,4.722a.347.347,0,0,1,0,.492.38.38,0,0,1-.116.174l-.087.029A.349.349,0,0,1,50.988,248.632Zm154.843-6.721a.347.347,0,0,1,0-.493c1.477-1.246,2.9-2.52,4.374-3.795a.347.347,0,0,1,.493,0,.376.376,0,0,1,0,.521l-4.4,3.8a.372.372,0,0,1-.087.087l-.087.029A.4.4,0,0,1,205.831,241.911ZM44.412,238.985c-1.014-1.594-2.057-3.274-3.071-4.925a.377.377,0,0,1,0-.492.348.348,0,0,1,.493,0c.985,1.651,2.027,3.3,3.042,4.925a.377.377,0,0,1,0,.493l-.145.174A.406.406,0,0,1,44.412,238.985Zm170.313-4.752a.258.258,0,0,1-.232,0,.318.318,0,0,1,0-.492c1.362-1.391,2.723-2.9,4-4.172a.348.348,0,0,1,.493,0,.377.377,0,0,1,0,.521c-1.275,1.391-2.636,2.9-4.027,4.2l-.036,0A.347.347,0,0,1,214.724,234.234Zm-176.28-5.156c-.927-1.651-1.883-3.361-2.9-5.1a.376.376,0,0,1,.637-.348c.927,1.738,1.883,3.447,2.9,5.07a.377.377,0,0,1,0,.493l-.319.058h0A.376.376,0,0,1,38.444,229.078Zm184.16-3.419h-.289a.377.377,0,0,1,0-.521c1.217-1.506,2.4-2.9,3.534-4.577a.348.348,0,1,1,.493.493c-1.13,1.535-2.318,3.1-3.563,4.606a.318.318,0,0,1-.174,0ZM32.94,218.822c-.9-1.738-1.767-3.505-2.578-5.215a.421.421,0,0,1,.637-.464l2.578,5.215a.376.376,0,0,1-.145.492l-.174.174h0A.347.347,0,0,1,32.94,218.822Zm196.472-2.492-.058-.029h-.174a.348.348,0,0,1,0-.493c1.043-1.622,2.028-3.274,2.9-4.954a.377.377,0,1,1,.637.348c-.956,1.68-1.97,3.36-2.9,4.982a.406.406,0,0,1-.406.145ZM27.9,208.364c-.811-1.767-1.593-3.534-2.375-5.33a.358.358,0,1,1,.666-.261c.753,1.767,1.564,3.534,2.347,5.272a.377.377,0,0,1-.174.493l-.145.029h0A.348.348,0,0,1,27.9,208.364ZM235,206.192a.377.377,0,0,1-.174-.493c.84-1.709,1.622-3.476,2.375-5.272a.348.348,0,0,1,.464-.174.377.377,0,0,1,.2.464c-.753,1.8-1.535,3.592-2.376,5.3a.377.377,0,0,1-.492.174ZM23.206,197.7q-1.129-2.694-2.172-5.388a.348.348,0,0,1,.2-.493.376.376,0,0,1,.463.232c.7,1.8,1.42,3.592,2.173,5.359a.406.406,0,0,1-.2.493H23.5A.32.32,0,0,1,23.206,197.7Zm216.2-2.231a.377.377,0,0,1-.232-.464c.637-1.825,1.188-3.679,1.709-5.5a.358.358,0,1,1,.7.174c-.521,1.854-1.1,3.737-1.709,5.562a.376.376,0,0,1-.347.232ZM19.237,187.1a.377.377,0,0,1-.347-.232c-.666-1.8-1.333-3.621-1.97-5.446a.358.358,0,0,1,.666-.261c.666,1.825,1.3,3.65,2,5.475a.377.377,0,0,1-.232.464Zm223.211-2.9a.376.376,0,0,1-.29-.434c.406-1.912.782-3.824,1.072-5.794a.376.376,0,0,1,.434-.29.348.348,0,0,1,.29.406c-.29,1.883-.666,3.8-1.072,5.794a.406.406,0,0,1-.261.579ZM15.181,175.918c-.608-1.825-1.217-3.65-1.8-5.5a.376.376,0,0,1,.7-.232c.579,1.854,1.188,3.679,1.8,5.5a.348.348,0,0,1-.232.464l-.116.029A.406.406,0,0,1,15.181,175.918Zm228.959-3.126a.318.318,0,0,1-.07-.264c.2-1.883.376-3.824.492-5.794a.348.348,0,0,1,.377-.348.405.405,0,0,1,.347.377,53.841,53.841,0,0,1-.492,5.794.376.376,0,0,1-.29.319l-.116.029h-.005A.32.32,0,0,1,244.141,172.792Zm-232.2-7.68a.376.376,0,0,1-.347-.232c-.551-1.854-1.1-3.737-1.623-5.591a.362.362,0,0,1,.7-.2c.521,1.883,1.072,3.737,1.622,5.562a.377.377,0,0,1-.232.464Zm232.829-4.172c0-1.912-.145-3.853-.289-5.794a.348.348,0,0,1,.319-.406.378.378,0,0,1,.406.348c0,1.912.261,3.882.289,5.794a.377.377,0,0,1-.348.376l-.029.029A.348.348,0,0,1,244.766,160.941ZM8.519,153.7v-.29c-.493-1.883-.985-3.766-1.449-5.794a.373.373,0,0,1,.724-.174c.464,1.883.927,3.766,1.419,5.62v.289a.377.377,0,0,1-.261.464l-.087.145H8.855A.347.347,0,0,1,8.519,153.7Zm235.234-4.287c-.29-1.854-.637-3.766-1.043-5.794a.355.355,0,1,1,.7-.145c.434,1.912.782,3.824,1.072,5.794a.348.348,0,0,1-.29.406l-.058.029h-.011A.376.376,0,0,1,243.752,149.411ZM5.8,142.111c-.434-1.912-.84-3.824-1.187-5.794a.355.355,0,1,1,.7-.145c.376,1.854.782,3.766,1.188,5.794a.348.348,0,0,1-.261.434H6.137A.348.348,0,0,1,5.8,142.111Zm235.639-3.94c-.521-1.8-1.1-3.679-1.709-5.5a.367.367,0,1,1,.7-.232c.609,1.854,1.188,3.737,1.709,5.562a.348.348,0,0,1-.261.434l-.087.029h0A.348.348,0,0,1,241.434,138.171ZM3.768,131.015a.348.348,0,0,1-.348-.29c-.348-1.912-.666-3.853-.956-5.794a.367.367,0,1,1,.724-.116c.29,1.912.609,3.824.927,5.794a.377.377,0,0,1-.289.435Zm233.785-3.8c-.7-1.767-1.419-3.563-2.2-5.359a.346.346,0,0,1,.174-.463.376.376,0,0,1,.492.174c.782,1.8,1.536,3.592,2.2,5.388a.348.348,0,0,1-.2.464l-.116.029A.377.377,0,0,1,237.553,127.22Zm-235.9-8c-.232-1.912-.464-3.853-.666-5.794a.348.348,0,0,1,.319-.406.377.377,0,0,1,.406.319c.2,1.912.434,3.853.666,5.794a.348.348,0,0,1-.319.406H2.025A.377.377,0,0,1,1.653,119.225Zm231.323-2.607c-.811-1.68-1.709-3.419-2.636-5.157a.314.314,0,1,1,.492-.348c.927,1.739,1.825,3.477,2.665,5.186a.376.376,0,0,1-.174.492v.029A.435.435,0,0,1,232.975,116.617ZM.841,108.013l-.029-.029a.347.347,0,0,1-.348-.319c0-1.97-.289-3.94-.376-5.794a.377.377,0,0,1,.348-.376.348.348,0,0,1,.376.348c0,1.883.232,3.824.376,5.794a.348.348,0,0,1-.346.377Zm226.688-1.594c-.956-1.651-1.97-3.3-2.9-4.954a.405.405,0,0,1,0-.521.377.377,0,0,1,.493,0c1.043,1.681,2.057,3.332,2.9,4.983a.347.347,0,0,1,0,.492l-.2.174h-.005A.318.318,0,0,1,227.529,106.42Zm-6.171-9.676c-1.043-1.564-2.144-3.158-3.273-4.78a.346.346,0,0,1,0-.492.377.377,0,0,1,.521,0c1.159,1.593,2.259,3.215,3.3,4.78a.377.377,0,0,1,0,.493.29.29,0,0,1-.232,0,.465.465,0,0,1-.319,0ZM.378,96.4H.349A.348.348,0,0,1,0,96.049V90.226a.348.348,0,0,1,.348-.348.348.348,0,0,1,.376.348V96.02A.347.347,0,0,1,.38,96.4Zm214.375-9.1c-1.188-1.564-2.376-3.1-3.564-4.577a.359.359,0,1,1,.521-.493c1.159,1.478,2.376,2.9,3.564,4.577a.377.377,0,0,1,0,.521l-.232-.029a.346.346,0,0,1-.289,0ZM.349,84.779A.348.348,0,0,1,0,84.4c0-1.941.2-3.882.348-5.794a.348.348,0,0,1,.376-.348.406.406,0,0,1,.348.406c0,1.883-.261,3.853-.348,5.794a.376.376,0,0,1-.371.319ZM207.4,78.233l-3.8-4.4a.359.359,0,1,1,.521-.492c1.246,1.391,2.52,2.9,3.8,4.374a.377.377,0,0,1,0,.521.318.318,0,0,1-.232,0,.376.376,0,0,1-.289,0ZM1.276,73.221a.377.377,0,0,1-.319-.406c.232-1.941.492-3.882.811-5.794a.348.348,0,0,1,.406-.29.319.319,0,0,1,.29.406c-.29,1.854-.551,3.8-.782,5.794a.378.378,0,0,1-.367.292Zm198.7-3.679a.32.32,0,0,1-.261,0c-1.3-1.419-2.665-2.9-4-4.2a.377.377,0,0,1,0-.521.405.405,0,0,1,.521,0c1.332,1.39,2.694,2.9,4,4.23a.377.377,0,0,1,0,.521.457.457,0,0,1-.08.007A.468.468,0,0,1,199.979,69.541ZM3.246,61.778a.347.347,0,0,1-.29-.434c.376-1.883.84-3.8,1.3-5.794a.347.347,0,0,1,.464-.261.377.377,0,0,1,.261.434c-.493,1.854-.927,3.766-1.333,5.649a.376.376,0,0,1-.375.407Zm188.691-.52a.29.29,0,0,1-.157-.03c-1.419-1.362-2.9-2.724-4.2-4.027a.346.346,0,0,1,0-.492.377.377,0,0,1,.521,0c1.39,1.3,2.9,2.665,4.2,4.027a.377.377,0,0,1,0,.521.348.348,0,0,1-.364,0Zm-8.53-7.978a.376.376,0,0,1-.116-.018c-1.419-1.3-2.9-2.579-4.374-3.824a.406.406,0,0,1,0-.521.377.377,0,0,1,.521,0l4.374,3.824a.405.405,0,0,1,0,.521.377.377,0,0,1-.406.018ZM6.143,50.538a.406.406,0,0,1-.232-.464c.608-1.883,1.246-3.737,1.941-5.5a.406.406,0,0,1,.464-.2.348.348,0,0,1,.2.464c-.666,1.739-1.3,3.592-1.912,5.447a.377.377,0,0,1-.464.261Zm168.2-4.838c-1.506-1.217-2.9-2.462-4.519-3.621a.377.377,0,0,1,.464-.579c1.477,1.188,2.9,2.4,4.519,3.65a.348.348,0,0,1,0,.493.408.408,0,0,1-.232.058.317.317,0,0,1-.232,0ZM10.227,39.616a.348.348,0,0,1-.174-.492c.811-1.767,1.709-3.505,2.636-5.186a.377.377,0,1,1,.637.348c-.927,1.651-1.8,3.389-2.636,5.157a.348.348,0,0,1-.464.174Zm155.249-1.072h-.2c-1.536-1.159-3.129-2.318-4.693-3.419a.377.377,0,0,1,.406-.609c1.593,1.13,3.157,2.289,4.722,3.448a.333.333,0,0,1-.229.579Zm-9.676-6.75-4.809-3.244a.358.358,0,0,1,.376-.609q2.462,1.564,4.867,3.216a.376.376,0,0,1,0,.492.288.288,0,0,1-.232.145.231.231,0,0,1-.2,0ZM15.905,29.622h-.2a.348.348,0,0,1,0-.493c1.1-1.651,2.26-3.216,3.448-4.722a.359.359,0,1,1,.492.521,49.129,49.129,0,0,0-3.389,4.635.319.319,0,0,1-.348.058ZM146.24,25.508h.029Zm-.174,0c-1.622-1.014-3.3-2-4.982-2.9A.358.358,0,1,1,141.46,22c1.68.956,3.361,1.97,4.983,2.9a.347.347,0,0,1,0,.492.318.318,0,0,1-.2.116ZM23.131,20.588a.282.282,0,0,1-.215-.5c1.362-1.419,2.9-2.9,4.23-4.027a.369.369,0,0,1,.521.521A53.861,53.861,0,0,0,23.5,20.554a.379.379,0,0,1-.213.066A.373.373,0,0,1,23.131,20.588Zm113-.874h-.174q-2.55-1.391-5.128-2.694a.377.377,0,0,1-.116-.579.348.348,0,0,1,.492-.145c1.681.84,3.419,1.767,5.128,2.694a.347.347,0,0,1,0,.492.321.321,0,0,1-.174.232ZM125.788,14.47h-.174c-1.709-.811-3.505-1.622-5.272-2.376a.376.376,0,0,1-.174-.492.347.347,0,0,1,.464-.174c1.8.782,3.563,1.564,5.3,2.4a.329.329,0,0,1-.116.637ZM31.549,12.848a.348.348,0,0,1,0-.493c1.594-1.129,3.216-2.2,4.9-3.157a.376.376,0,0,1,.376.637c-1.651.956-3.3,2-4.838,3.1a.358.358,0,0,1-.116.058h-.05A.319.319,0,0,1,31.549,12.848Zm83.578-2.984c-1.8-.7-3.621-1.391-5.417-2.028a.376.376,0,0,1-.232-.464.405.405,0,0,1,.464-.2c1.825.637,3.65,1.333,5.446,2.028a.348.348,0,1,1,0,.7ZM41.544,7a.377.377,0,0,1,.174-.493c1.739-.782,3.534-1.535,5.389-2.2a.348.348,0,0,1,.464.2.377.377,0,0,1-.2.464c-1.825.666-3.622,1.419-5.331,2.2l-.174.029A.406.406,0,0,1,41.544,7Zm62.632-.985c-1.854-.579-3.708-1.1-5.562-1.594a.406.406,0,0,1-.261-.434.377.377,0,0,1,.493-.29c1.825.493,3.708,1.014,5.591,1.622a.348.348,0,1,1,0,.7ZM52.436,3a.377.377,0,0,1,.261-.464c1.825-.492,3.737-.927,5.794-1.3a.348.348,0,0,1,.434.261.376.376,0,0,1-.289.434c-1.912.377-3.8.811-5.62,1.3l-.232.029A.4.4,0,0,1,52.436,3Zm40.616.029c-1.912-.406-3.824-.782-5.794-1.072a.376.376,0,0,1-.29-.434.348.348,0,0,1,.406-.29c1.854.319,3.8.666,5.794,1.1a.378.378,0,0,1,.29.435.348.348,0,0,1-.406.261ZM63.838,1.091a.318.318,0,0,1-.1-.236.318.318,0,0,1,.319-.376c1.883-.2,3.824-.348,5.794-.406a.376.376,0,0,1,.347.348A.348.348,0,0,1,69.847.8a55.037,55.037,0,0,0-5.794.376h0A.319.319,0,0,1,63.838,1.091ZM75.67.739a.377.377,0,1,1,0-.724,55.677,55.677,0,0,1,5.794.434.348.348,0,0,1,.319.406.377.377,0,0,1-.319.319C79.552.97,77.611.825,75.67.739Z" transform="translate(0.361 41.591)" fill="#d8d5db" stroke="#a71c45" stroke-width="0.25"/>
    </g>
    <g id="integration" transform="translate(208.719 2012.183)">
      <path id="Path_1988" data-name="Path 1988" d="M193.23,183.206l-5.03-5.03a25.745,25.745,0,0,0,2.049-4.694h7.386a2.055,2.055,0,0,0,2.055-2.055V159.547a2.055,2.055,0,0,0-2.055-2.055h-7.386A25.748,25.748,0,0,0,188.2,152.8l5.029-5.03a2.055,2.055,0,0,0,0-2.906l-7.724-7.724a2.056,2.056,0,0,0-2.907,0l-5.224,5.224a25.838,25.838,0,0,0-3.855-1.6v-7.386a2.055,2.055,0,0,0-2.055-2.055H160.542a2.055,2.055,0,0,0-2.055,2.055v7.112a25.718,25.718,0,0,0-4.766,1.874l-5.224-5.224a2.056,2.056,0,0,0-2.907,0l-7.724,7.724a2.055,2.055,0,0,0,0,2.906l5.029,5.03a25.749,25.749,0,0,0-2.049,4.694h-7.386a2.055,2.055,0,0,0-2.055,2.055v11.881a2.055,2.055,0,0,0,2.055,2.055h7.386a25.743,25.743,0,0,0,2.049,4.694l-5.029,5.03a2.055,2.055,0,0,0,0,2.906l7.724,7.724a2.055,2.055,0,0,0,2.906,0l5.224-5.224a25.731,25.731,0,0,0,4.766,1.874V197.6a2.055,2.055,0,0,0,2.055,2.055h10.923a2.055,2.055,0,0,0,2.055-2.055v-7.386a25.831,25.831,0,0,0,3.855-1.6l5.224,5.224a2.055,2.055,0,0,0,2.906,0l7.724-7.724A2.055,2.055,0,0,0,193.23,183.206Zm-9.177,6.27-4.865-4.864a2.055,2.055,0,0,0-2.5-.314,21.7,21.7,0,0,1-5.728,2.376,2.055,2.055,0,0,0-1.548,1.992v6.876H162.6v-6.664a2.055,2.055,0,0,0-1.627-2.01,21.659,21.659,0,0,1-6.56-2.569,2.054,2.054,0,0,0-2.5.314l-4.865,4.864-4.817-4.817,4.713-4.714a2.055,2.055,0,0,0,.271-2.571,21.681,21.681,0,0,1-2.826-6.455,2.055,2.055,0,0,0-1.992-1.548h-6.876V161.6h6.876a2.055,2.055,0,0,0,1.992-1.548,21.7,21.7,0,0,1,2.826-6.454,2.055,2.055,0,0,0-.271-2.571l-4.713-4.714,4.817-4.817,4.864,4.865a2.056,2.056,0,0,0,2.5.314,21.653,21.653,0,0,1,6.56-2.569,2.055,2.055,0,0,0,1.627-2.01v-6.664h6.813v6.876a2.055,2.055,0,0,0,1.548,1.992,21.706,21.706,0,0,1,5.728,2.376,2.056,2.056,0,0,0,2.5-.314l4.864-4.865,4.817,4.817-4.713,4.714a2.055,2.055,0,0,0-.271,2.571,21.687,21.687,0,0,1,2.826,6.454A2.055,2.055,0,0,0,188.7,161.6h6.876v7.77H188.7a2.055,2.055,0,0,0-1.992,1.548,21.7,21.7,0,0,1-2.826,6.455,2.055,2.055,0,0,0,.271,2.571l4.713,4.714Z" transform="translate(-95.397 -95.336)" fill="#a71c45"/>
      <path id="Path_1989" data-name="Path 1989" d="M228.556,218.2a10.441,10.441,0,0,0-1.573.119,2.055,2.055,0,1,0,.62,4.063,6.323,6.323,0,0,1,.953-.072,6.241,6.241,0,1,1-6.176,5.29,2.055,2.055,0,1,0-4.063-.625,10.36,10.36,0,1,0,10.239-8.776Z" transform="translate(-158.405 -158.404)" fill="#a71c45"/>
      <path id="Path_1990" data-name="Path 1990" d="M427.446,45.457a6.207,6.207,0,1,0,6.207,6.207A6.214,6.214,0,0,0,427.446,45.457Zm0,8.3a2.1,2.1,0,1,1,2.1-2.1A2.1,2.1,0,0,1,427.446,53.761Z" transform="translate(-305.808 -33.001)" fill="#a71c45"/>
      <path id="Path_1991" data-name="Path 1991" d="M411.053,12.456h-3.494a14.447,14.447,0,0,0-6.908-6.908V2.055A2.055,2.055,0,0,0,398.6,0h-8.3a2.055,2.055,0,0,0-2.055,2.055V5.548a14.448,14.448,0,0,0-6.908,6.908h-3.494a2.055,2.055,0,0,0-2.055,2.055v8.3a2.055,2.055,0,0,0,2.055,2.055h3.493a14.449,14.449,0,0,0,6.908,6.908v3.493a2.055,2.055,0,0,0,2.055,2.055h8.3a2.055,2.055,0,0,0,2.055-2.055V31.779a14.449,14.449,0,0,0,6.908-6.908h3.493a2.055,2.055,0,0,0,2.055-2.055v-8.3A2.055,2.055,0,0,0,411.053,12.456ZM409,20.761h-2.811a2.055,2.055,0,0,0-1.937,1.368,10.521,10.521,0,0,1-6.34,6.34,2.055,2.055,0,0,0-1.368,1.937v2.811h-4.194V30.406a2.055,2.055,0,0,0-1.368-1.937,10.522,10.522,0,0,1-6.34-6.34,2.055,2.055,0,0,0-1.937-1.368H379.89V16.567H382.7a2.055,2.055,0,0,0,1.937-1.368,10.522,10.522,0,0,1,6.34-6.34,2.055,2.055,0,0,0,1.368-1.937V4.11h4.194V6.922a2.055,2.055,0,0,0,1.368,1.937,10.521,10.521,0,0,1,6.34,6.34,2.055,2.055,0,0,0,1.937,1.368H409Z" transform="translate(-272.806 0)" fill="#a71c45"/>
      <path id="Path_1992" data-name="Path 1992" d="M433.653,427.446a6.207,6.207,0,1,0-6.207,6.207A6.214,6.214,0,0,0,433.653,427.446Zm-8.3,0a2.1,2.1,0,1,1,2.1,2.1A2.1,2.1,0,0,1,425.349,427.446Z" transform="translate(-305.808 -305.808)" fill="#a71c45"/>
      <path id="Path_1993" data-name="Path 1993" d="M411.053,388.237H407.56a14.449,14.449,0,0,0-6.908-6.908v-3.494a2.055,2.055,0,0,0-2.055-2.055h-8.3a2.055,2.055,0,0,0-2.055,2.055v3.654a2.056,2.056,0,0,0,2.256,3.335q.24-.1.486-.186a2.056,2.056,0,0,0,1.369-1.937V379.89h4.194V382.7a2.055,2.055,0,0,0,1.368,1.937,10.521,10.521,0,0,1,6.34,6.34,2.055,2.055,0,0,0,1.937,1.368H409v4.194h-2.811a2.055,2.055,0,0,0-1.937,1.368,10.521,10.521,0,0,1-6.34,6.34,2.055,2.055,0,0,0-1.368,1.937V409h-4.194v-2.811a2.055,2.055,0,0,0-1.368-1.937,10.521,10.521,0,0,1-6.34-6.34,2.055,2.055,0,0,0-1.937-1.368H379.89v-4.194H382.7a2.055,2.055,0,0,0,1.937-1.369q.092-.259.2-.511a2.056,2.056,0,0,0-3.364-2.23h-3.637a2.055,2.055,0,0,0-2.055,2.055v8.3a2.055,2.055,0,0,0,2.055,2.055h3.494a14.449,14.449,0,0,0,6.908,6.908v3.493a2.055,2.055,0,0,0,2.055,2.055h8.3a2.055,2.055,0,0,0,2.055-2.055v-3.494a14.447,14.447,0,0,0,6.908-6.908h3.494a2.055,2.055,0,0,0,2.055-2.055v-8.3A2.055,2.055,0,0,0,411.053,388.237Z" transform="translate(-272.806 -272.806)" fill="#a71c45"/>
      <path id="Path_1994" data-name="Path 1994" d="M57.872,51.664a6.207,6.207,0,1,0-6.208,6.207A6.214,6.214,0,0,0,57.872,51.664Zm-8.3,0a2.1,2.1,0,1,1,2.1,2.1A2.1,2.1,0,0,1,49.567,51.664Z" transform="translate(-33.001 -33.001)" fill="#a71c45"/>
      <path id="Path_1995" data-name="Path 1995" d="M2.055,24.871H5.549a14.449,14.449,0,0,0,6.908,6.908v3.494a2.055,2.055,0,0,0,2.055,2.055h8.3a2.055,2.055,0,0,0,2.055-2.055V31.779a14.45,14.45,0,0,0,6.908-6.908h3.493a2.055,2.055,0,0,0,2.055-2.055v-8.3a2.055,2.055,0,0,0-2.055-2.055H31.779a14.449,14.449,0,0,0-6.908-6.908V2.055A2.055,2.055,0,0,0,22.816,0h-8.3a2.055,2.055,0,0,0-2.055,2.055V5.71a2.055,2.055,0,0,0,2.257,3.335q.239-.1.485-.186a2.055,2.055,0,0,0,1.368-1.937V4.11h4.194V6.922a2.055,2.055,0,0,0,1.368,1.937,10.522,10.522,0,0,1,6.34,6.34,2.055,2.055,0,0,0,1.937,1.368h2.811v4.194H30.406a2.055,2.055,0,0,0-1.937,1.368,10.523,10.523,0,0,1-6.34,6.34,2.055,2.055,0,0,0-1.368,1.937v2.811H16.567V30.406A2.055,2.055,0,0,0,15.2,28.469a10.522,10.522,0,0,1-6.34-6.34,2.055,2.055,0,0,0-1.937-1.368H4.11V16.567H6.922A2.055,2.055,0,0,0,8.859,15.2q.091-.258.2-.509a2.056,2.056,0,0,0-3.362-2.232H2.055A2.055,2.055,0,0,0,0,14.512v8.3a2.055,2.055,0,0,0,2.055,2.055Z" transform="translate(0 0)" fill="#a71c45"/>
      <path id="Path_1996" data-name="Path 1996" d="M35.273,388.237H31.779a14.45,14.45,0,0,0-6.908-6.908v-3.493a2.055,2.055,0,0,0-2.055-2.055h-8.3a2.055,2.055,0,0,0-2.055,2.055v3.494a14.449,14.449,0,0,0-6.908,6.908H2.055A2.055,2.055,0,0,0,0,390.292v8.3a2.055,2.055,0,0,0,2.055,2.055H5.549a14.447,14.447,0,0,0,6.908,6.908v3.494a2.055,2.055,0,0,0,2.055,2.055h8.3a2.055,2.055,0,0,0,2.055-2.055V407.56a14.449,14.449,0,0,0,6.908-6.908h3.494a2.055,2.055,0,0,0,2.055-2.055v-8.3A2.055,2.055,0,0,0,35.273,388.237Zm-2.055,8.3H30.406a2.055,2.055,0,0,0-1.937,1.368,10.522,10.522,0,0,1-6.34,6.34,2.055,2.055,0,0,0-1.368,1.937V409H16.567v-2.811A2.055,2.055,0,0,0,15.2,404.25a10.522,10.522,0,0,1-6.34-6.34,2.055,2.055,0,0,0-1.937-1.368H4.11v-4.194H6.922a2.055,2.055,0,0,0,1.937-1.368,10.522,10.522,0,0,1,6.34-6.34,2.055,2.055,0,0,0,1.368-1.937V379.89h4.194V382.7a2.055,2.055,0,0,0,1.368,1.937,10.522,10.522,0,0,1,6.34,6.34,2.055,2.055,0,0,0,1.937,1.368h2.811Z" transform="translate(0 -272.806)" fill="#a71c45"/>
      <path id="Path_1997" data-name="Path 1997" d="M51.664,421.238a6.207,6.207,0,1,0,6.207,6.207A6.214,6.214,0,0,0,51.664,421.238Zm0,8.3a2.1,2.1,0,1,1,2.1-2.1A2.1,2.1,0,0,1,51.664,429.542Z" transform="translate(-33.001 -305.807)" fill="#a71c45"/>
      <path id="Path_1998" data-name="Path 1998" d="M114.627,111.72a2.055,2.055,0,0,0-2.907,2.907l5.9,5.9h-1.682a2.055,2.055,0,1,0,0,4.11h6.644a2.077,2.077,0,0,0,2.055-2.057v-6.642a2.055,2.055,0,1,0-4.11,0v1.682Z" transform="translate(-80.669 -80.669)" fill="#a71c45"/>
      <path id="Path_1999" data-name="Path 1999" d="M351.547,122.789a2.077,2.077,0,0,0,2.045,1.852h6.643a2.055,2.055,0,1,0,0-4.11h-1.682l5.9-5.9a2.055,2.055,0,0,0-2.907-2.907l-5.9,5.9v-1.682a2.055,2.055,0,0,0-4.11,0v6.642A2,2,0,0,0,351.547,122.789Z" transform="translate(-255.206 -80.669)" fill="#a71c45"/>
      <path id="Path_2000" data-name="Path 2000" d="M124.63,351.369a2.076,2.076,0,0,0-2.045-1.852h-6.644a2.055,2.055,0,1,0,0,4.11h1.682l-5.9,5.9a2.055,2.055,0,0,0,2.906,2.907l5.9-5.9v1.682a2.055,2.055,0,1,0,4.11,0v-6.642c0-.068,0-.136-.01-.2Z" transform="translate(-80.668 -253.74)" fill="#a71c45"/>
      <path id="Path_2001" data-name="Path 2001" d="M361.55,362.437a2.055,2.055,0,0,0,2.906-2.907l-5.9-5.9h1.682a2.055,2.055,0,1,0,0-4.11h-6.643a2.077,2.077,0,0,0-2.055,2.056v6.642a2.055,2.055,0,1,0,4.11,0v-1.682Z" transform="translate(-255.206 -253.74)" fill="#a71c45"/>
    </g>
  </g>
</svg>
