<svg xmlns="http://www.w3.org/2000/svg" width="269.169" height="309.783" viewBox="0 0 269.169 309.783">
  <g id="it" transform="translate(-137.983 -1921.725)">
    <g id="Group_661" data-name="Group 661" transform="translate(137.983 1921.724)">
      <path id="Path" d="M247.611,193.167a99.9,99.9,0,0,1-32.18,57.367,121.947,121.947,0,0,1-18.849,13.659c-23.63,14.287-52.914,22.947-83.4,30.049l-5.218,1.175a52.446,52.446,0,0,1-13.823,1.257c-48.489-2.021-81.516-73.894-91.787-149.536C-6.606,79.8,8.391,3.528,75.538.086,100.752-1.17,130.173,11.4,157.49,31.611c1.967,1.448,3.934,2.95,5.873,4.48h0l1.2.956C215.567,77.7,257.227,143.613,247.611,193.167Z" transform="translate(20.169 0)" fill="#fedce6"/>
      <path id="Path-2" data-name="Path" d="M29.79,19.115c3.8,7.676,5.19,17.4-2.431,20.515C18.835,43.127,5.231,37.5,1.3,24.688-1.243,16.493-.369,5.074,6.761.676,12.58-3.094,25.255,9.718,29.79,19.115Z" transform="translate(0 237.456)" fill="#f5f9fd"/>
      <path id="Shape" d="M100.912,270.43a46.157,46.157,0,0,1-5.464-.655.346.346,0,0,1,.11-.683,45.826,45.826,0,0,0,5.463.655.33.33,0,0,1,.242.106.326.326,0,0,1,.086.25.355.355,0,0,1-.437.327Zm5.463,0a.327.327,0,0,1-.328-.327.3.3,0,0,1,.3-.356,44.587,44.587,0,0,0,5.463-.71.355.355,0,0,1,.41.273.328.328,0,0,1-.273.383,45.927,45.927,0,0,1-5.463.738Zm-21.335-3.8a.355.355,0,0,1-.191-.437.383.383,0,0,1,.464-.191,49.747,49.747,0,0,0,5.081,1.858.355.355,0,0,1,.246.437.383.383,0,0,1-.437.191v.027A51.339,51.339,0,0,1,85.041,266.633Zm31.743,1.475a.356.356,0,0,1,.219-.437c.792-.246,1.612-.546,2.431-.847l2.732-1.011a.328.328,0,0,1,.437.191.3.3,0,0,1-.191.437l-2.732,1.038c-.819.3-1.666.6-2.486.847l-.082.028H117.1A.328.328,0,0,1,116.783,268.108Zm10.244-3.825a.3.3,0,0,1,.191-.437l5.081-2.021a.337.337,0,1,1,.246.628l-5.081,2.021-.137.027A.328.328,0,0,1,127.028,264.283Zm-46.877-.055v.028h-.164c-1.584-.847-3.169-1.8-4.726-2.732a.355.355,0,0,1,0-.464.328.328,0,0,1,.464,0,48.314,48.314,0,0,0,4.671,2.731.251.251,0,1,1-.246.437Zm57.067-4.016a.355.355,0,0,1,.164-.464c1.694-.683,3.387-1.393,5.054-2.131a.382.382,0,0,1,.437.191.328.328,0,0,1-.164.437c-1.694.738-3.36,1.448-5.054,2.131l-.137.027h-.02A.3.3,0,0,1,137.217,260.213Zm-66.382-1.885c-1.421-1.093-2.732-2.24-4.262-3.469a.339.339,0,0,1,.437-.519c1.393,1.2,2.732,2.376,4.234,3.442a.295.295,0,0,1-.273.519l.055.027a.3.3,0,0,1-.191,0Zm76.38-2.459a.328.328,0,0,1,.164-.437c1.666-.765,3.332-1.5,4.972-2.294a.355.355,0,1,1,.273.628l-4.972,2.295-.137.028A.328.328,0,0,1,147.215,255.869Zm9.916-4.617a.328.328,0,0,1,.164-.464l4.863-2.459a.355.355,0,1,1,.328.6c-1.639.847-3.251,1.666-4.917,2.459l-.137.055h0A.327.327,0,0,1,157.132,251.253Zm-94.655-.082q-1.913-1.885-3.852-3.934a.3.3,0,0,1,0-.465.355.355,0,0,1,.492,0c1.284,1.366,2.568,2.732,3.824,3.907a.3.3,0,0,1,0,.464.274.274,0,0,1-.246,0v.028a.3.3,0,0,1-.218,0Zm104.38-4.945a.354.354,0,0,1,.136-.464c1.612-.874,3.224-1.776,4.753-2.732a.356.356,0,0,1,.465,0,.328.328,0,0,1,0,.464l-4.781,2.732-.273.191A.382.382,0,0,1,166.857,246.226Zm-111.7-3.032a.38.38,0,0,1-.273,0c-1.174-1.338-2.322-2.731-3.469-4.234a.33.33,0,1,1,.519-.41c1.148,1.448,2.322,2.732,3.47,4.207a.355.355,0,0,1,0,.492Zm121.1-2.431a.328.328,0,0,1,0-.465c1.584-.983,3.142-1.967,4.617-2.95a.328.328,0,1,1,.464.465c-1.475.983-3.032,1.967-4.617,2.95l-.191.164h-.006A.3.3,0,0,1,176.254,240.763Zm9.151-5.874a.328.328,0,0,1,0-.464c1.5-1.093,2.977-2.158,4.4-3.251a.328.328,0,1,1,.465.464c-1.421,1.093-2.9,2.186-4.425,3.251a.27.27,0,0,1-.082-.027l-.082.027a.327.327,0,0,1-.273,0ZM48.08,234.453c-1.066-1.421-2.131-2.923-3.169-4.453a.382.382,0,0,1,0-.492.355.355,0,0,1,.492,0c1.038,1.5,2.1,3,3.142,4.453a.328.328,0,0,1,0,.464.358.358,0,0,1-.11.164l-.082.028A.329.329,0,0,1,48.08,234.453Zm146.012-6.338a.327.327,0,0,1,0-.465c1.393-1.175,2.731-2.376,4.124-3.578a.327.327,0,0,1,.465,0,.355.355,0,0,1,0,.491l-4.153,3.579a.351.351,0,0,1-.082.082l-.082.027A.381.381,0,0,1,194.092,228.115ZM41.879,225.356c-.956-1.5-1.939-3.087-2.9-4.644a.355.355,0,0,1,0-.464.328.328,0,0,1,.465,0c.928,1.557,1.912,3.114,2.868,4.644a.356.356,0,0,1,0,.465l-.137.164A.383.383,0,0,1,41.879,225.356Zm160.6-4.481a.244.244,0,0,1-.218,0,.3.3,0,0,1,0-.464c1.284-1.311,2.568-2.732,3.769-3.934a.328.328,0,0,1,.465,0,.355.355,0,0,1,0,.492c-1.2,1.311-2.486,2.732-3.8,3.961l-.034,0A.327.327,0,0,1,202.479,220.875ZM36.252,216.013c-.874-1.557-1.776-3.169-2.732-4.808a.355.355,0,0,1,.6-.328c.874,1.639,1.776,3.251,2.732,4.78a.356.356,0,0,1,0,.465l-.3.055h0A.355.355,0,0,1,36.252,216.013Zm173.657-3.224h-.273a.355.355,0,0,1,0-.492c1.147-1.421,2.267-2.732,3.332-4.316a.329.329,0,1,1,.465.465c-1.066,1.448-2.186,2.923-3.36,4.343a.3.3,0,0,1-.164,0ZM31.061,206.343c-.847-1.639-1.666-3.305-2.431-4.917a.4.4,0,0,1,.6-.437l2.431,4.917a.355.355,0,0,1-.137.464l-.164.164h0A.328.328,0,0,1,31.061,206.343Zm185.268-2.349-.055-.027h-.164a.328.328,0,0,1,0-.465c.983-1.53,1.912-3.087,2.732-4.671a.355.355,0,1,1,.6.328c-.9,1.584-1.858,3.169-2.731,4.7a.383.383,0,0,1-.383.137ZM26.308,196.481c-.765-1.666-1.5-3.332-2.24-5.026a.338.338,0,1,1,.628-.246c.71,1.666,1.475,3.333,2.213,4.972a.356.356,0,0,1-.164.465l-.137.027h0A.328.328,0,0,1,26.308,196.481ZM221.6,194.433a.355.355,0,0,1-.164-.465c.792-1.612,1.53-3.278,2.24-4.972a.328.328,0,0,1,.437-.164.355.355,0,0,1,.191.437c-.71,1.693-1.448,3.387-2.24,5a.355.355,0,0,1-.464.164Zm-199.719-8q-1.065-2.54-2.048-5.081a.328.328,0,0,1,.191-.465.355.355,0,0,1,.437.219c.656,1.693,1.339,3.387,2.049,5.053a.383.383,0,0,1-.191.465h-.157A.3.3,0,0,1,21.882,186.428Zm203.871-2.1a.355.355,0,0,1-.218-.437c.6-1.721,1.12-3.469,1.612-5.19a.338.338,0,1,1,.655.164c-.492,1.749-1.038,3.524-1.612,5.245a.355.355,0,0,1-.327.218ZM18.14,176.43a.355.355,0,0,1-.327-.219c-.628-1.693-1.257-3.414-1.858-5.135a.337.337,0,1,1,.628-.246c.628,1.721,1.229,3.442,1.885,5.163a.355.355,0,0,1-.219.437ZM228.622,173.7a.355.355,0,0,1-.273-.41c.383-1.8.738-3.606,1.011-5.463a.355.355,0,0,1,.41-.273.329.329,0,0,1,.273.383c-.273,1.776-.628,3.579-1.011,5.463a.383.383,0,0,1-.246.546ZM14.315,165.885c-.573-1.721-1.147-3.442-1.693-5.19a.355.355,0,0,1,.655-.219c.546,1.749,1.12,3.47,1.694,5.191a.328.328,0,0,1-.219.437l-.109.027A.382.382,0,0,1,14.315,165.885Zm215.9-2.947a.3.3,0,0,1-.066-.249c.191-1.776.355-3.606.464-5.463a.329.329,0,0,1,.356-.328.382.382,0,0,1,.327.356,50.774,50.774,0,0,1-.464,5.463.355.355,0,0,1-.273.3l-.109.027h0A.3.3,0,0,1,230.217,162.938ZM11.256,155.7a.354.354,0,0,1-.327-.219c-.519-1.748-1.039-3.524-1.53-5.272a.342.342,0,0,1,.656-.191c.492,1.776,1.01,3.524,1.53,5.245a.355.355,0,0,1-.219.437Zm219.551-3.934c0-1.8-.137-3.633-.273-5.463a.328.328,0,0,1,.3-.383.356.356,0,0,1,.383.328c0,1.8.246,3.66.273,5.463a.355.355,0,0,1-.328.355l-.027.028A.328.328,0,0,1,230.807,151.762ZM8.033,144.933v-.273c-.465-1.776-.929-3.551-1.366-5.463a.352.352,0,0,1,.683-.164c.437,1.776.874,3.551,1.338,5.3v.273a.355.355,0,0,1-.246.437l-.082.137H8.35A.327.327,0,0,1,8.033,144.933Zm221.818-4.043c-.273-1.749-.6-3.551-.983-5.463a.335.335,0,1,1,.655-.137c.41,1.8.738,3.606,1.011,5.463a.328.328,0,0,1-.273.383l-.055.027h-.01A.354.354,0,0,1,229.851,140.89ZM5.465,134.006c-.41-1.8-.792-3.606-1.12-5.463A.335.335,0,1,1,5,128.406c.355,1.748.738,3.551,1.12,5.463a.328.328,0,0,1-.246.41H5.787A.328.328,0,0,1,5.465,134.006Zm222.2-3.715c-.492-1.693-1.038-3.469-1.611-5.19a.346.346,0,1,1,.655-.219c.574,1.749,1.12,3.524,1.612,5.245a.328.328,0,0,1-.246.41l-.082.028h0A.328.328,0,0,1,227.665,130.291ZM3.553,123.543a.328.328,0,0,1-.328-.273c-.328-1.8-.628-3.633-.9-5.463a.346.346,0,1,1,.683-.109c.273,1.8.574,3.606.874,5.463a.355.355,0,0,1-.273.41Zm220.452-3.579c-.655-1.666-1.338-3.36-2.076-5.054a.326.326,0,0,1,.164-.437.355.355,0,0,1,.464.164c.738,1.693,1.448,3.387,2.077,5.081a.328.328,0,0,1-.191.437l-.109.028A.355.355,0,0,1,224.005,119.965ZM1.558,112.425c-.218-1.8-.437-3.633-.628-5.463a.328.328,0,0,1,.3-.383.355.355,0,0,1,.383.3c.191,1.8.41,3.633.628,5.463a.328.328,0,0,1-.3.383H1.909A.355.355,0,0,1,1.558,112.425Zm218.13-2.459c-.765-1.584-1.612-3.224-2.486-4.863a.3.3,0,1,1,.464-.328c.874,1.639,1.721,3.278,2.513,4.89a.355.355,0,0,1-.164.464v.028A.41.41,0,0,1,219.689,109.967ZM.793,101.853l-.027-.028a.327.327,0,0,1-.328-.3c0-1.858-.273-3.715-.355-5.463a.355.355,0,0,1,.328-.355.328.328,0,0,1,.355.328c0,1.776.218,3.606.355,5.463a.328.328,0,0,1-.326.355Zm213.76-1.5c-.9-1.557-1.858-3.114-2.732-4.671a.382.382,0,0,1,0-.492.356.356,0,0,1,.465,0c.983,1.585,1.939,3.142,2.731,4.7a.328.328,0,0,1,0,.464l-.191.164h-.005A.3.3,0,0,1,214.553,100.351Zm-5.819-9.124c-.983-1.475-2.021-2.978-3.086-4.508a.326.326,0,0,1,0-.464.355.355,0,0,1,.492,0c1.093,1.5,2.131,3.032,3.114,4.507a.356.356,0,0,1,0,.465.273.273,0,0,1-.219,0,.438.438,0,0,1-.3,0ZM.357,90.9H.329A.328.328,0,0,1,0,90.571V85.08a.328.328,0,0,1,.328-.328.328.328,0,0,1,.355.328v5.463a.327.327,0,0,1-.326.355Zm202.15-8.577c-1.12-1.475-2.24-2.923-3.36-4.316a.338.338,0,1,1,.492-.465c1.093,1.394,2.24,2.732,3.36,4.316a.355.355,0,0,1,0,.492l-.219-.027a.327.327,0,0,1-.273,0ZM.329,79.944A.328.328,0,0,1,0,79.589c0-1.83.191-3.66.328-5.463A.328.328,0,0,1,.684,73.8a.383.383,0,0,1,.328.383c0,1.776-.246,3.633-.328,5.463a.355.355,0,0,1-.35.3Zm195.239-6.173-3.579-4.153a.338.338,0,1,1,.492-.464c1.175,1.311,2.376,2.731,3.579,4.125a.355.355,0,0,1,0,.492.3.3,0,0,1-.219,0,.355.355,0,0,1-.273,0ZM1.2,69.045a.355.355,0,0,1-.3-.383c.218-1.83.464-3.661.765-5.463a.329.329,0,0,1,.383-.273.3.3,0,0,1,.273.383c-.273,1.749-.519,3.579-.738,5.463a.356.356,0,0,1-.346.275Zm187.371-3.47a.3.3,0,0,1-.246,0c-1.229-1.338-2.513-2.731-3.77-3.961a.355.355,0,0,1,0-.492.382.382,0,0,1,.492,0c1.256,1.311,2.54,2.731,3.769,3.988a.355.355,0,0,1,0,.492.431.431,0,0,1-.076.007A.442.442,0,0,1,188.574,65.576ZM3.061,58.254a.328.328,0,0,1-.273-.41c.355-1.776.792-3.579,1.229-5.463a.328.328,0,0,1,.437-.246.355.355,0,0,1,.246.41c-.465,1.749-.874,3.551-1.257,5.327a.355.355,0,0,1-.353.384Zm177.93-.491a.274.274,0,0,1-.148-.028c-1.338-1.284-2.731-2.568-3.961-3.8a.327.327,0,0,1,0-.464.355.355,0,0,1,.492,0c1.311,1.229,2.731,2.513,3.961,3.8a.355.355,0,0,1,0,.492.328.328,0,0,1-.344,0Zm-8.043-7.523a.355.355,0,0,1-.109-.017c-1.338-1.229-2.731-2.432-4.125-3.606a.383.383,0,0,1,0-.492.355.355,0,0,1,.492,0l4.125,3.606a.382.382,0,0,1,0,.492.356.356,0,0,1-.382.017ZM5.792,47.655a.383.383,0,0,1-.218-.437c.573-1.776,1.175-3.524,1.83-5.191a.383.383,0,0,1,.437-.191.328.328,0,0,1,.191.437C7.4,43.913,6.8,45.661,6.23,47.41a.355.355,0,0,1-.437.246ZM164.4,43.093c-1.421-1.147-2.732-2.322-4.262-3.415a.355.355,0,0,1,.437-.546c1.393,1.12,2.731,2.267,4.262,3.442a.328.328,0,0,1,0,.465.384.384,0,0,1-.219.055.3.3,0,0,1-.218,0ZM9.644,37.356a.328.328,0,0,1-.164-.464c.765-1.666,1.612-3.305,2.486-4.89a.355.355,0,1,1,.6.328c-.874,1.557-1.694,3.2-2.486,4.863a.328.328,0,0,1-.437.164Zm146.4-1.01h-.191c-1.448-1.093-2.95-2.186-4.425-3.224a.355.355,0,0,1,.383-.574c1.5,1.066,2.977,2.158,4.452,3.251a.314.314,0,0,1-.216.546Zm-9.124-6.365-4.535-3.059a.337.337,0,0,1,.355-.574q2.322,1.475,4.589,3.032a.354.354,0,0,1,0,.464.271.271,0,0,1-.218.137.218.218,0,0,1-.191,0ZM15,27.932h-.191a.328.328,0,0,1,0-.465c1.039-1.557,2.131-3.032,3.251-4.452a.338.338,0,1,1,.464.492,46.327,46.327,0,0,0-3.2,4.37.3.3,0,0,1-.328.055Zm122.9-3.879h.027Zm-.164,0c-1.53-.956-3.114-1.885-4.7-2.732a.337.337,0,1,1,.355-.574c1.584.9,3.169,1.858,4.7,2.732a.328.328,0,0,1,0,.464.3.3,0,0,1-.191.11ZM21.812,19.414a.266.266,0,0,1-.2-.469c1.284-1.338,2.731-2.732,3.988-3.8a.348.348,0,0,1,.492.492,50.79,50.79,0,0,0-3.934,3.742.357.357,0,0,1-.2.062A.352.352,0,0,1,21.812,19.414Zm106.554-.824H128.2q-2.4-1.311-4.836-2.541a.355.355,0,0,1-.109-.546.328.328,0,0,1,.464-.137c1.585.792,3.224,1.666,4.836,2.541a.328.328,0,0,1,0,.464.3.3,0,0,1-.164.219Zm-9.752-4.945h-.164c-1.612-.765-3.305-1.53-4.972-2.24a.355.355,0,0,1-.164-.464.327.327,0,0,1,.437-.164c1.693.738,3.36,1.475,5,2.267a.31.31,0,0,1-.109.6ZM29.75,12.115a.328.328,0,0,1,0-.465c1.5-1.065,3.032-2.076,4.617-2.977a.355.355,0,0,1,.355.6c-1.557.9-3.114,1.885-4.562,2.923a.337.337,0,0,1-.11.055H30A.3.3,0,0,1,29.75,12.115ZM108.561,9.3c-1.693-.656-3.414-1.311-5.108-1.912a.355.355,0,0,1-.218-.437.382.382,0,0,1,.437-.191c1.721.6,3.442,1.257,5.135,1.912a.328.328,0,1,1,0,.655ZM39.175,6.6a.355.355,0,0,1,.164-.465c1.639-.738,3.333-1.448,5.081-2.076a.328.328,0,0,1,.437.191.355.355,0,0,1-.191.437c-1.721.628-3.415,1.338-5.027,2.076l-.164.028A.383.383,0,0,1,39.175,6.6Zm59.06-.929c-1.748-.546-3.5-1.038-5.245-1.5a.383.383,0,0,1-.246-.41.355.355,0,0,1,.465-.273c1.721.465,3.5.956,5.272,1.53a.328.328,0,1,1,0,.656ZM49.446,2.827a.355.355,0,0,1,.246-.437c1.721-.464,3.524-.874,5.463-1.229a.328.328,0,0,1,.41.246.355.355,0,0,1-.273.41c-1.8.356-3.579.765-5.3,1.229l-.218.028A.382.382,0,0,1,49.446,2.827Zm38.3.028c-1.8-.383-3.606-.738-5.463-1.011a.355.355,0,0,1-.273-.41.329.329,0,0,1,.383-.273c1.748.3,3.579.628,5.463,1.038a.356.356,0,0,1,.273.41.328.328,0,0,1-.383.246ZM60.2,1.029a.3.3,0,0,1-.1-.223.3.3,0,0,1,.3-.355C62.176.259,64.006.123,65.864.068A.355.355,0,0,1,66.191.4a.328.328,0,0,1-.327.355,51.9,51.9,0,0,0-5.463.355h0A.3.3,0,0,1,60.2,1.029ZM71.354.7a.355.355,0,1,1,0-.683,52.5,52.5,0,0,1,5.464.41.328.328,0,0,1,.3.383.356.356,0,0,1-.3.3C75.015.915,73.185.778,71.354.7Z" transform="translate(0.34 39.219)" fill="#d8d5db" stroke="#a71c45" stroke-width="0.25"/>
    </g>
    <g id="cloud-computing" transform="translate(203.261 2004.572)">
      <g id="Group_204" data-name="Group 204" transform="translate(0)">
        <g id="Group_203" data-name="Group 203">
          <path id="Path_1972" data-name="Path 1972" d="M122.419,35.526a22.215,22.215,0,0,0-15.693-17.218A37.031,37.031,0,0,0,46.353,13.3a28.316,28.316,0,0,0-31.821,21.8A17.28,17.28,0,0,0,.8,52.091,17.487,17.487,0,0,0,18.237,69.527h10.9V65.168h-10.9c-7.192,0-13.3-6.321-13.077-13.077.654-12.859,13.077-13.077,13.077-13.077C21.289,18.526,39.6,15.475,48.1,18.09c0,0,8.936-13.731,26.59-13.731,20.488,0,28.988,17.654,28.988,17.654a17.486,17.486,0,0,1,14.6,17.218s12.423.436,13.077,13.077c.436,7.192-5.885,13.077-13.077,13.077h-10.9v4.359h10.9a17.487,17.487,0,0,0,17.436-17.436C135.932,44.462,130.265,37.488,122.419,35.526Z" transform="translate(-0.801 0)" fill="#a71c45"/>
        </g>
      </g>
      <g id="Group_206" data-name="Group 206" transform="translate(30.514 37.27)">
        <g id="Group_205" data-name="Group 205">
          <path id="Path_1973" data-name="Path 1973" d="M114.579,138.971v21.8h74.1v-21.8Zm69.745,17.436H118.938V143.33h65.386Z" transform="translate(-114.579 -138.971)" fill="#a71c45"/>
        </g>
      </g>
      <g id="Group_208" data-name="Group 208" transform="translate(39.232 45.988)">
        <g id="Group_207" data-name="Group 207">
          <rect id="Rectangle_71" data-name="Rectangle 71" width="4.359" height="4.359" fill="#a71c45"/>
        </g>
      </g>
      <g id="Group_210" data-name="Group 210" transform="translate(47.95 45.988)">
        <g id="Group_209" data-name="Group 209">
          <rect id="Rectangle_72" data-name="Rectangle 72" width="4.359" height="4.359" fill="#a71c45"/>
        </g>
      </g>
      <g id="Group_212" data-name="Group 212" transform="translate(56.668 45.988)">
        <g id="Group_211" data-name="Group 211">
          <rect id="Rectangle_73" data-name="Rectangle 73" width="4.359" height="4.359" fill="#a71c45"/>
        </g>
      </g>
      <g id="Group_214" data-name="Group 214" transform="translate(71.925 45.988)">
        <g id="Group_213" data-name="Group 213">
          <rect id="Rectangle_74" data-name="Rectangle 74" width="23.975" height="4.359" fill="#a71c45"/>
        </g>
      </g>
      <g id="Group_216" data-name="Group 216" transform="translate(30.514 63.424)">
        <g id="Group_215" data-name="Group 215">
          <path id="Path_1974" data-name="Path 1974" d="M114.579,236.5v21.8h74.1V236.5Zm69.745,17.436H118.938V240.854h65.386Z" transform="translate(-114.579 -236.495)" fill="#a71c45"/>
        </g>
      </g>
      <g id="Group_218" data-name="Group 218" transform="translate(39.232 72.143)">
        <g id="Group_217" data-name="Group 217">
          <rect id="Rectangle_75" data-name="Rectangle 75" width="4.359" height="4.359" fill="#a71c45"/>
        </g>
      </g>
      <g id="Group_220" data-name="Group 220" transform="translate(47.95 72.143)">
        <g id="Group_219" data-name="Group 219">
          <rect id="Rectangle_76" data-name="Rectangle 76" width="4.359" height="4.359" fill="#a71c45"/>
        </g>
      </g>
      <g id="Group_222" data-name="Group 222" transform="translate(56.668 72.143)">
        <g id="Group_221" data-name="Group 221">
          <rect id="Rectangle_77" data-name="Rectangle 77" width="4.359" height="4.359" fill="#a71c45"/>
        </g>
      </g>
      <g id="Group_224" data-name="Group 224" transform="translate(71.925 72.143)">
        <g id="Group_223" data-name="Group 223">
          <rect id="Rectangle_78" data-name="Rectangle 78" width="23.975" height="4.359" fill="#a71c45"/>
        </g>
      </g>
      <g id="Group_226" data-name="Group 226" transform="translate(30.514 89.579)">
        <g id="Group_225" data-name="Group 225">
          <path id="Path_1975" data-name="Path 1975" d="M188.683,355.814v-21.8h-74.1v21.8h34.873v10.9h-4.359v4.359H121.118v4.359h23.975v4.359H158.17V375.43h23.975v-4.359H158.17v-4.359h-4.359v-10.9ZM153.811,375.43h-4.359v-4.359h4.359Zm-34.873-23.975V338.378h65.386v13.077Z" transform="translate(-114.579 -334.019)" fill="#a71c45"/>
        </g>
      </g>
      <g id="Group_228" data-name="Group 228" transform="translate(39.232 98.297)">
        <g id="Group_227" data-name="Group 227">
          <rect id="Rectangle_79" data-name="Rectangle 79" width="4.359" height="4.359" fill="#a71c45"/>
        </g>
      </g>
      <g id="Group_230" data-name="Group 230" transform="translate(47.95 98.297)">
        <g id="Group_229" data-name="Group 229">
          <rect id="Rectangle_80" data-name="Rectangle 80" width="4.359" height="4.359" fill="#a71c45"/>
        </g>
      </g>
      <g id="Group_232" data-name="Group 232" transform="translate(56.668 98.297)">
        <g id="Group_231" data-name="Group 231">
          <rect id="Rectangle_81" data-name="Rectangle 81" width="4.359" height="4.359" fill="#a71c45"/>
        </g>
      </g>
      <g id="Group_234" data-name="Group 234" transform="translate(71.925 98.297)">
        <g id="Group_233" data-name="Group 233">
          <rect id="Rectangle_82" data-name="Rectangle 82" width="23.975" height="4.359" fill="#a71c45"/>
        </g>
      </g>
    </g>
  </g>
</svg>
