<svg id="twitter_1_" data-name="twitter (1)" xmlns="http://www.w3.org/2000/svg" width="23.809" height="23.809" viewBox="0 0 23.809 23.809">
  <g id="Group_669" data-name="Group 669">
    <g id="Group_668" data-name="Group 668">
      <path id="Path_2003" data-name="Path 2003" d="M17.521,0H6.288A6.221,6.221,0,0,0,0,6.288V17.521a6.221,6.221,0,0,0,6.288,6.288H17.521a6.221,6.221,0,0,0,6.288-6.288V6.288A6.221,6.221,0,0,0,17.521,0Zm4.752,17.521a4.7,4.7,0,0,1-4.752,4.752H6.288a4.7,4.7,0,0,1-4.752-4.752V6.288A4.7,4.7,0,0,1,6.288,1.536H17.521a4.7,4.7,0,0,1,4.752,4.752Z" fill="#fff"/>
      <path id="Path_2004" data-name="Path 2004" d="M100.985,115.566a.768.768,0,0,0-.84-.042,4.438,4.438,0,0,1-1.312.292l-.284.038a3.69,3.69,0,0,0-2.349-.846,3.635,3.635,0,0,0-3.643,3.389,7.477,7.477,0,0,1-4.511-2.591.768.768,0,0,0-1.3.18,10.276,10.276,0,0,0-.478,3.775c0,2.259,1.783,3.918,3.005,4.792a5.249,5.249,0,0,1-2.716.419.768.768,0,0,0-.5,1.413,9.033,9.033,0,0,0,4.827,1.392,8.808,8.808,0,0,0,8.96-8.589c.158-.23.46-.677.97-1.461a5.246,5.246,0,0,0,.459-1.373A.767.767,0,0,0,100.985,115.566Zm-2.518,2.923a.77.77,0,0,0-.146.45,7.31,7.31,0,0,1-7.428,7.3,7.572,7.572,0,0,1-1.372-.125,6.588,6.588,0,0,0,1.69-.946.768.768,0,0,0-.122-1.293c-.033-.017-3.279-1.724-3.279-4.114a16.335,16.335,0,0,1,.1-1.91,9.043,9.043,0,0,0,5.445,2.174c.015,0,.031,0,.046,0a.768.768,0,0,0,.715-1.067,2.07,2.07,0,0,1,2.084-2.415,2.14,2.14,0,0,1,1.545.657.77.77,0,0,0,.7.224c.174-.033.376-.059.587-.087l.229-.031C98.685,118.186,98.477,118.476,98.467,118.489Z" transform="translate(-81.593 -109.487)" fill="#fff"/>
    </g>
  </g>
</svg>
