<svg xmlns="http://www.w3.org/2000/svg" width="86.612" height="99.747" viewBox="0 0 86.612 99.747">
  <g id="Values" transform="translate(0.017 2.258)">
    <g id="Group_202" data-name="Group 202" transform="translate(-48.526 -44)">
      <path id="Path" d="M79.66,62.145A32.139,32.139,0,0,1,69.308,80.6a39.232,39.232,0,0,1-6.064,4.394c-7.6,4.6-17.023,7.382-26.831,9.667l-1.679.378a16.873,16.873,0,0,1-4.447.4C14.687,94.794,4.062,71.671.757,47.336-2.125,25.673,2.7,1.135,24.3.028c8.112-.4,17.577,3.638,26.365,10.142.633.466,1.266.949,1.89,1.441h0l.387.308C69.351,25,82.754,46.2,79.66,62.145Z" transform="translate(55.014 41.742)" fill="#fedce6"/>
      <path id="Path-2" data-name="Path" d="M9.584,6.15c1.222,2.47,1.67,5.6-.782,6.6C6.06,13.875,1.683,12.064.417,7.942-.4,5.306-.119,1.632,2.175.217,4.047-1,8.125,3.126,9.584,6.15Z" transform="translate(48.525 118.135)" fill="#f5f9fd"/>
      <path id="Shape" d="M32.465,87a14.849,14.849,0,0,1-1.758-.211.111.111,0,0,1,.035-.22,14.745,14.745,0,0,0,1.758.211.106.106,0,0,1,.078.034.1.1,0,0,1,.028.08.114.114,0,0,1-.14.105Zm1.758,0a.105.105,0,0,1-.106-.105.1.1,0,0,1,.1-.114,14.344,14.344,0,0,0,1.758-.228.114.114,0,0,1,.132.088.105.105,0,0,1-.088.123A14.777,14.777,0,0,1,34.258,87ZM27.359,85.78a.114.114,0,0,1-.062-.141.123.123,0,0,1,.149-.062,16,16,0,0,0,1.635.6.114.114,0,0,1,.079.141.123.123,0,0,1-.141.062v.009A16.515,16.515,0,0,1,27.359,85.78Zm10.212.475a.114.114,0,0,1,.07-.141c.255-.079.519-.176.782-.272l.879-.325a.106.106,0,0,1,.141.062.1.1,0,0,1-.062.141l-.879.334c-.264.1-.536.193-.8.272l-.026.009h0A.106.106,0,0,1,37.571,86.255Zm3.3-1.23a.1.1,0,0,1,.062-.141l1.635-.65a.109.109,0,1,1,.079.2l-1.635.65-.044.009A.106.106,0,0,1,40.867,85.024Zm-15.081-.018v.009h-.053c-.51-.273-1.019-.58-1.52-.879a.114.114,0,0,1,0-.149.105.105,0,0,1,.149,0,15.546,15.546,0,0,0,1.5.879.081.081,0,1,1-.079.141Zm18.359-1.292a.114.114,0,0,1,.053-.149c.545-.22,1.09-.448,1.626-.685a.123.123,0,0,1,.141.062.105.105,0,0,1-.053.14c-.545.237-1.081.466-1.626.686l-.044.009h-.007A.1.1,0,0,1,44.145,83.715Zm-21.356-.606c-.457-.352-.879-.721-1.371-1.116a.109.109,0,0,1,.141-.167c.448.387.879.765,1.362,1.107a.095.095,0,0,1-.088.167l.018.009a.1.1,0,0,1-.062,0Zm24.573-.791a.106.106,0,0,1,.053-.141c.536-.246,1.072-.483,1.6-.738a.114.114,0,1,1,.088.2l-1.6.738-.044.009A.106.106,0,0,1,47.361,82.317Zm3.19-1.485a.105.105,0,0,1,.053-.149l1.564-.791a.114.114,0,1,1,.106.193c-.527.272-1.046.536-1.582.791l-.044.018h0A.105.105,0,0,1,50.552,80.832ZM20.1,80.806q-.615-.607-1.239-1.266a.1.1,0,0,1,0-.149.114.114,0,0,1,.158,0c.413.439.826.879,1.23,1.257a.1.1,0,0,1,0,.149.088.088,0,0,1-.079,0v.009a.1.1,0,0,1-.07,0Zm33.581-1.591a.114.114,0,0,1,.044-.149c.519-.281,1.037-.571,1.529-.879a.114.114,0,0,1,.149,0,.105.105,0,0,1,0,.149l-1.538.879-.088.062A.123.123,0,0,1,53.681,79.215Zm-35.936-.976a.122.122,0,0,1-.088,0c-.378-.431-.747-.879-1.116-1.362a.106.106,0,1,1,.167-.132c.369.466.747.879,1.116,1.353a.114.114,0,0,1,0,.158ZM56.7,77.457a.106.106,0,0,1,0-.149c.51-.316,1.011-.633,1.485-.949a.106.106,0,1,1,.149.149c-.475.316-.976.633-1.485.949l-.062.053h0A.1.1,0,0,1,56.7,77.457Zm2.944-1.89a.105.105,0,0,1,0-.149c.483-.352.958-.694,1.415-1.046a.106.106,0,1,1,.149.149c-.457.352-.932.7-1.424,1.046a.087.087,0,0,1-.026-.009l-.026.009a.105.105,0,0,1-.088,0Zm-44.18-.14c-.343-.457-.685-.94-1.019-1.433a.123.123,0,0,1,0-.158.114.114,0,0,1,.158,0c.334.483.677.967,1.011,1.433a.105.105,0,0,1,0,.149.115.115,0,0,1-.035.053l-.026.009A.106.106,0,0,1,15.468,75.427Zm46.975-2.039a.105.105,0,0,1,0-.149c.448-.378.879-.765,1.327-1.151a.105.105,0,0,1,.149,0,.114.114,0,0,1,0,.158L62.583,73.4a.113.113,0,0,1-.026.026l-.026.009A.123.123,0,0,1,62.443,73.388ZM13.473,72.5c-.308-.483-.624-.993-.932-1.494a.114.114,0,0,1,0-.149.106.106,0,0,1,.149,0c.3.5.615,1,.923,1.494a.115.115,0,0,1,0,.149l-.044.053A.123.123,0,0,1,13.473,72.5Zm51.667-1.441a.078.078,0,0,1-.07,0,.1.1,0,0,1,0-.149c.413-.422.826-.879,1.213-1.266a.106.106,0,0,1,.149,0,.114.114,0,0,1,0,.158c-.387.422-.8.879-1.222,1.274H65.2A.105.105,0,0,1,65.141,71.059ZM11.663,69.495c-.281-.5-.571-1.02-.879-1.547a.114.114,0,0,1,.193-.106c.281.527.571,1.046.879,1.538a.114.114,0,0,1,0,.149l-.1.018h0A.114.114,0,0,1,11.663,69.495Zm55.868-1.037h-.088a.114.114,0,0,1,0-.158c.369-.457.729-.879,1.072-1.389a.106.106,0,1,1,.149.149c-.343.466-.7.94-1.081,1.4a.1.1,0,0,1-.053,0ZM9.993,66.384c-.272-.527-.536-1.063-.782-1.582a.128.128,0,0,1,.193-.141l.782,1.582a.114.114,0,0,1-.044.149l-.053.053h0A.105.105,0,0,1,9.993,66.384Zm59.6-.756-.018-.009h-.053a.106.106,0,0,1,0-.149c.316-.492.615-.993.879-1.5a.114.114,0,1,1,.193.106c-.29.51-.6,1.019-.879,1.512a.123.123,0,0,1-.1.047ZM8.464,63.211c-.246-.536-.483-1.072-.721-1.617a.109.109,0,1,1,.2-.079c.228.536.475,1.072.712,1.6a.114.114,0,0,1-.053.149l-.044.009h0A.106.106,0,0,1,8.464,63.211Zm62.829-.659a.114.114,0,0,1-.053-.149c.255-.519.492-1.055.721-1.6a.106.106,0,0,1,.141-.053.114.114,0,0,1,.062.141c-.228.545-.466,1.09-.721,1.608a.114.114,0,0,1-.149.053ZM7.04,59.977q-.343-.817-.659-1.635a.105.105,0,0,1,.062-.149.114.114,0,0,1,.14.07c.211.545.431,1.09.659,1.626a.123.123,0,0,1-.062.149H7.13A.1.1,0,0,1,7.04,59.977ZM72.628,59.3a.114.114,0,0,1-.07-.141c.193-.554.36-1.116.519-1.67a.109.109,0,1,1,.211.053c-.158.563-.334,1.134-.519,1.687a.114.114,0,0,1-.105.07ZM5.836,56.76a.114.114,0,0,1-.105-.07c-.2-.545-.4-1.1-.6-1.652a.109.109,0,0,1,.2-.079c.2.554.4,1.107.606,1.661a.114.114,0,0,1-.07.141Zm67.715-.879a.114.114,0,0,1-.088-.132c.123-.58.237-1.16.325-1.758a.114.114,0,0,1,.132-.088.106.106,0,0,1,.088.123c-.088.571-.2,1.151-.325,1.758a.123.123,0,0,1-.079.176ZM4.605,53.368c-.184-.554-.369-1.107-.545-1.67a.114.114,0,0,1,.211-.07c.176.563.36,1.116.545,1.67a.106.106,0,0,1-.07.141l-.035.009A.123.123,0,0,1,4.605,53.368Zm69.459-.948a.1.1,0,0,1-.021-.08c.062-.571.114-1.16.149-1.758a.106.106,0,0,1,.114-.106.123.123,0,0,1,.105.114,16.335,16.335,0,0,1-.149,1.758.114.114,0,0,1-.088.1l-.035.009h0A.1.1,0,0,1,74.065,52.42ZM3.621,50.09a.114.114,0,0,1-.105-.07c-.167-.562-.334-1.134-.492-1.7a.11.11,0,0,1,.211-.062c.158.571.325,1.134.492,1.687a.114.114,0,0,1-.07.141Zm70.633-1.266c0-.58-.044-1.169-.088-1.758a.105.105,0,0,1,.1-.123.115.115,0,0,1,.123.106c0,.58.079,1.178.088,1.758a.114.114,0,0,1-.106.114l-.009.009A.106.106,0,0,1,74.254,48.824Zm-71.67-2.2v-.088c-.149-.571-.3-1.142-.439-1.758a.113.113,0,0,1,.22-.053c.141.571.281,1.142.431,1.7v.088a.114.114,0,0,1-.079.141l-.026.044h0A.105.105,0,0,1,2.584,46.627Zm71.362-1.3c-.088-.563-.193-1.142-.316-1.758a.108.108,0,1,1,.211-.044c.132.58.237,1.16.325,1.758a.106.106,0,0,1-.088.123l-.018.009h0A.114.114,0,0,1,73.947,45.327ZM1.758,43.112c-.132-.58-.255-1.16-.36-1.758a.108.108,0,1,1,.211-.044c.114.562.237,1.142.36,1.758a.105.105,0,0,1-.079.132H1.862A.105.105,0,0,1,1.758,43.112Zm71.486-1.2c-.158-.545-.334-1.116-.518-1.67a.111.111,0,1,1,.211-.07c.185.563.36,1.134.519,1.687a.105.105,0,0,1-.079.132L73.349,42h0A.106.106,0,0,1,73.244,41.917Zm-72.1-2.171a.105.105,0,0,1-.106-.088c-.106-.58-.2-1.169-.29-1.758a.111.111,0,1,1,.22-.035c.088.58.185,1.16.281,1.758a.114.114,0,0,1-.088.132Zm70.923-1.151c-.211-.536-.431-1.081-.668-1.626a.105.105,0,0,1,.053-.14.114.114,0,0,1,.149.053c.237.545.466,1.09.668,1.635a.106.106,0,0,1-.062.141l-.035.009A.114.114,0,0,1,72.066,38.595ZM.5,36.169C.431,35.589.361,35,.3,34.411a.105.105,0,0,1,.1-.123.114.114,0,0,1,.123.1c.062.58.132,1.169.2,1.758a.105.105,0,0,1-.1.123H.614A.114.114,0,0,1,.5,36.169Zm70.176-.791c-.246-.51-.519-1.037-.8-1.564a.1.1,0,1,1,.149-.106c.281.527.554,1.055.809,1.573a.114.114,0,0,1-.053.149v.009A.132.132,0,0,1,70.677,35.378ZM.255,32.768l-.009-.009a.105.105,0,0,1-.106-.1c0-.6-.088-1.2-.114-1.758a.114.114,0,0,1,.106-.114.105.105,0,0,1,.114.106c0,.571.07,1.16.114,1.758a.105.105,0,0,1-.1.114Zm68.77-.483c-.29-.5-.6-1-.879-1.5a.123.123,0,0,1,0-.158.115.115,0,0,1,.149,0c.316.51.624,1.011.879,1.512a.105.105,0,0,1,0,.149l-.062.053h0A.1.1,0,0,1,69.025,32.284Zm-1.872-2.935c-.316-.475-.65-.958-.993-1.45a.105.105,0,0,1,0-.149.114.114,0,0,1,.158,0c.352.483.685.975,1,1.45a.114.114,0,0,1,0,.149.088.088,0,0,1-.07,0,.141.141,0,0,1-.1,0ZM.115,29.244H.106A.105.105,0,0,1,0,29.138V27.372a.106.106,0,0,1,.106-.106.105.105,0,0,1,.114.106v1.758a.105.105,0,0,1-.1.114Zm65.035-2.76c-.36-.475-.721-.94-1.081-1.389a.109.109,0,1,1,.158-.149c.352.448.721.879,1.081,1.389a.114.114,0,0,1,0,.158l-.07-.009a.105.105,0,0,1-.088,0ZM.106,25.719A.105.105,0,0,1,0,25.605c0-.589.062-1.178.106-1.758a.105.105,0,0,1,.114-.106.123.123,0,0,1,.106.123c0,.571-.079,1.169-.106,1.758a.114.114,0,0,1-.113.1Zm62.811-1.986L61.766,22.4a.109.109,0,1,1,.158-.149c.378.422.765.879,1.151,1.327a.114.114,0,0,1,0,.158.1.1,0,0,1-.07,0,.114.114,0,0,1-.088,0ZM.387,22.213a.114.114,0,0,1-.1-.123c.07-.589.149-1.178.246-1.758a.106.106,0,0,1,.123-.088.1.1,0,0,1,.088.123C.66,20.93.58,21.519.51,22.125a.115.115,0,0,1-.111.089ZM60.667,21.1a.1.1,0,0,1-.079,0c-.4-.431-.809-.879-1.213-1.274a.114.114,0,0,1,0-.158.123.123,0,0,1,.158,0c.4.422.817.879,1.213,1.283a.114.114,0,0,1,0,.158l-.024,0A.142.142,0,0,1,60.667,21.1ZM.985,18.741A.105.105,0,0,1,.9,18.61c.114-.571.255-1.151.4-1.758a.105.105,0,0,1,.141-.079.114.114,0,0,1,.079.132c-.149.563-.281,1.142-.4,1.714a.114.114,0,0,1-.114.123Zm57.243-.158a.088.088,0,0,1-.048-.009c-.431-.413-.879-.826-1.274-1.222a.105.105,0,0,1,0-.149.114.114,0,0,1,.158,0c.422.4.879.809,1.274,1.222a.114.114,0,0,1,0,.158.105.105,0,0,1-.111,0Zm-2.588-2.42a.114.114,0,0,1-.035-.006c-.431-.4-.879-.782-1.327-1.16a.123.123,0,0,1,0-.158.114.114,0,0,1,.158,0L55.763,16a.123.123,0,0,1,0,.158.114.114,0,0,1-.123.006ZM1.864,15.332a.123.123,0,0,1-.07-.141c.184-.571.378-1.134.589-1.67a.123.123,0,0,1,.141-.062.106.106,0,0,1,.062.141c-.2.527-.4,1.09-.58,1.652a.114.114,0,0,1-.141.079ZM52.89,13.864c-.457-.369-.879-.747-1.371-1.1a.114.114,0,0,1,.141-.176c.448.36.879.729,1.371,1.107a.106.106,0,0,1,0,.149.124.124,0,0,1-.07.018.1.1,0,0,1-.07,0ZM3.1,12.018a.105.105,0,0,1-.053-.149c.246-.536.519-1.063.8-1.573a.114.114,0,1,1,.193.106c-.281.5-.545,1.028-.8,1.564a.105.105,0,0,1-.141.053Zm47.1-.325h-.062c-.466-.352-.949-.7-1.424-1.037a.114.114,0,0,1,.123-.185c.483.343.958.694,1.432,1.046a.1.1,0,0,1-.07.176ZM47.265,9.645l-1.459-.984a.109.109,0,0,1,.114-.185q.747.475,1.476.976a.114.114,0,0,1,0,.149.087.087,0,0,1-.07.044.07.07,0,0,1-.062,0ZM4.825,8.986H4.764a.106.106,0,0,1,0-.149c.334-.5.686-.976,1.046-1.432a.109.109,0,1,1,.149.158A14.9,14.9,0,0,0,4.931,8.969a.1.1,0,0,1-.106.018ZM44.365,7.738h.009Zm-.053,0c-.492-.308-1-.607-1.512-.879a.109.109,0,1,1,.114-.185c.51.29,1.02.6,1.512.879a.105.105,0,0,1,0,.149.1.1,0,0,1-.062.035ZM7.017,6.246a.085.085,0,0,1-.065-.151c.413-.431.879-.879,1.283-1.222a.112.112,0,0,1,.158.158,16.34,16.34,0,0,0-1.266,1.2.115.115,0,0,1-.065.02A.113.113,0,0,1,7.017,6.246ZM41.3,5.981h-.053q-.774-.422-1.556-.817a.114.114,0,0,1-.035-.176.105.105,0,0,1,.149-.044c.51.255,1.037.536,1.556.817a.105.105,0,0,1,0,.149.1.1,0,0,1-.053.07ZM38.16,4.39h-.053c-.519-.246-1.063-.492-1.6-.721a.114.114,0,0,1-.053-.149.105.105,0,0,1,.141-.053c.545.237,1.081.475,1.608.729a.1.1,0,0,1-.035.193ZM9.571,3.9a.106.106,0,0,1,0-.149c.483-.343.976-.668,1.485-.958a.114.114,0,0,1,.114.193c-.5.29-1,.606-1.468.94a.108.108,0,0,1-.035.018H9.652A.1.1,0,0,1,9.571,3.9Zm25.355-.905c-.545-.211-1.1-.422-1.643-.615a.114.114,0,0,1-.07-.141.123.123,0,0,1,.141-.062c.554.193,1.107.4,1.652.615A.105.105,0,1,1,35,3ZM12.6,2.122a.114.114,0,0,1,.053-.149c.527-.237,1.072-.466,1.635-.668a.106.106,0,0,1,.141.062.114.114,0,0,1-.062.141c-.554.2-1.1.431-1.617.668l-.053.009A.123.123,0,0,1,12.6,2.122Zm19-.3c-.562-.176-1.125-.334-1.687-.483a.123.123,0,0,1-.079-.132.114.114,0,0,1,.149-.088c.554.149,1.125.308,1.7.492a.106.106,0,1,1,0,.211ZM15.908.91a.114.114,0,0,1,.079-.141C16.54.62,17.12.488,17.744.373a.105.105,0,0,1,.132.079.114.114,0,0,1-.088.132c-.58.114-1.151.246-1.7.4l-.07.009A.123.123,0,0,1,15.908.91ZM28.229.918C27.649.8,27.069.681,26.471.593a.114.114,0,0,1-.088-.132.106.106,0,0,1,.123-.088c.562.1,1.151.2,1.758.334a.115.115,0,0,1,.088.132.106.106,0,0,1-.1.081ZM19.366.331a.1.1,0,0,1-.031-.072.1.1,0,0,1,.1-.114C20,.083,20.592.04,21.189.022a.114.114,0,0,1,.105.106.105.105,0,0,1-.105.114,16.7,16.7,0,0,0-1.758.114h0A.1.1,0,0,1,19.366.331ZM22.956.224a.114.114,0,1,1,0-.22,16.891,16.891,0,0,1,1.758.132.105.105,0,0,1,.1.123.114.114,0,0,1-.1.1C24.134.294,23.545.25,22.956.224Z" transform="translate(48.635 54.359)" fill="#d8d5db" stroke="#a71c45" stroke-width="0.25"/>
    </g>
    <g id="value" transform="translate(25.171 28.365)">
      <path id="Path_1964" data-name="Path 1964" d="M56.55,283.951l-.182.1a2.507,2.507,0,0,0-2.978-.746l-.01.005-.429.231a3.261,3.261,0,0,0-3.735-.337L46.9,284.461H43.826a4.445,4.445,0,0,1-1.924-.441l-.423-.2a7.262,7.262,0,0,0-7.558.738l-.029.024-1.022.91a3.545,3.545,0,0,1-1.338.746l-.58-1.905a.46.46,0,0,0-.44-.326H25.568a.46.46,0,0,0-.457.516l1.648,13.509a.46.46,0,0,0,.457.4h7.414a.46.46,0,0,0,.44-.594l-.974-3.2,3.033-1.917a1.825,1.825,0,0,1,1.332-.172l.029.006,6.17,1.136a7.985,7.985,0,0,0,4.934-.7.452.452,0,0,0,.056-.033l10.672-7.328a.46.46,0,0,0,.134-.617A2.929,2.929,0,0,0,56.55,283.951Zm-2.739.171a1.571,1.571,0,0,1,1.718.38l-4.047,2.183-.238.125a3.508,3.508,0,0,0-.554-1.007Zm-4.15-.114.011-.006a2.34,2.34,0,0,1,2.38.022l-2.058,1.108a3.5,3.5,0,0,0-1.314-.591Zm-22.038,13.5-1.535-12.589H30.17l3.838,12.589Zm21.533-5.325a7.058,7.058,0,0,1-4.331.6l-6.155-1.133a2.744,2.744,0,0,0-2,.271l-.021.013-2.831,1.79L31.8,287.113a4.468,4.468,0,0,0,1.681-.94l1.008-.9a6.345,6.345,0,0,1,6.589-.634l.423.2a5.371,5.371,0,0,0,2.325.533h4.1a2.6,2.6,0,0,1,2.546,2.108l-2.975-.135a17.814,17.814,0,0,0-3.238.15.46.46,0,1,0,.126.912,16.868,16.868,0,0,1,3.07-.142l3.5.158h.021a.46.46,0,0,0,.46-.46c0-.074,0-.148-.008-.222l.48-.253,5.073-2.736a2.01,2.01,0,0,1,2.419.388Z" transform="translate(-25.108 -262.999)" fill="#a71c45" stroke="#a71c45" stroke-width="0.25"/>
      <path id="Path_1965" data-name="Path 1965" d="M76.974,432.747a1.449,1.449,0,1,0,1.449-1.449A1.449,1.449,0,0,0,76.974,432.747Zm1.449-.528a.528.528,0,1,1-.528.528.528.528,0,0,1,.528-.528Z" transform="translate(-72.996 -400.139)" fill="#a71c45" stroke="#a71c45" stroke-width="0.25"/>
      <path id="Path_1966" data-name="Path 1966" d="M217.52,30V28.482a3.493,3.493,0,1,0-6.985,0V30a3.493,3.493,0,1,0,6.985,0Zm-6.065,0V28.482a2.572,2.572,0,1,1,5.145,0V30a2.572,2.572,0,1,1-5.145,0Z" transform="translate(-196.314 -24.989)" fill="#a71c45" stroke="#a71c45" stroke-width="0.25"/>
      <path id="Path_1967" data-name="Path 1967" d="M78.64,147.938H89.9a.46.46,0,0,0,.46-.46v-1.056h7.708a.46.46,0,0,0,.46-.46v-2.987a3.449,3.449,0,0,0-3.229-3.44.537.537,0,0,0-.474.262,2.112,2.112,0,0,1-3.332-.081.46.46,0,0,0-.382-.187,3.411,3.411,0,0,0-1.693.494,3.868,3.868,0,0,0-2.7-1.339.56.56,0,0,0-.474.276,2.478,2.478,0,0,1-3.909-.1.459.459,0,0,0-.382-.187,3.851,3.851,0,0,0-2.672,1.166c-.058.059-.113.121-.167.184a3.422,3.422,0,0,0-1.569-.492.538.538,0,0,0-.474.262,2.112,2.112,0,0,1-3.331-.081.461.461,0,0,0-.382-.187A3.448,3.448,0,0,0,70,142.975v2.987a.46.46,0,0,0,.46.46h7.72v1.056a.46.46,0,0,0,.46.46Zm12.275-7.474a3.032,3.032,0,0,0,4.54.012,2.53,2.53,0,0,1,2.152,2.5V145.5H90.36v-2.952a3.85,3.85,0,0,0-.425-1.762A2.487,2.487,0,0,1,90.916,140.464Zm-9.159-.852a3.4,3.4,0,0,0,5.133.012,2.956,2.956,0,0,1,2.551,2.925v4.468H79.1v-4.468A2.973,2.973,0,0,1,81.756,139.612ZM70.92,145.5v-2.526a2.544,2.544,0,0,1,2.243-2.511,3.032,3.032,0,0,0,4.539.012,2.51,2.51,0,0,1,.9.317,3.855,3.855,0,0,0-.421,1.757V145.5Z" transform="translate(-66.557 -129.959)" fill="#a71c45" stroke="#a71c45" stroke-width="0.25"/>
      <path id="Path_1968" data-name="Path 1968" d="M337.359,54.7V53.374a3.114,3.114,0,1,0-6.229,0V54.7a3.114,3.114,0,1,0,6.229,0Zm-5.309,0V53.374a2.194,2.194,0,0,1,4.388,0V54.7a2.194,2.194,0,0,1-4.388,0Z" transform="translate(-307.662 -48.322)" fill="#a71c45" stroke="#a71c45" stroke-width="0.25"/>
      <path id="Path_1969" data-name="Path 1969" d="M105.875,54.7V53.374a3.114,3.114,0,0,0-6.229,0V54.7a3.114,3.114,0,0,0,6.229,0Zm-5.309,0V53.374a2.194,2.194,0,1,1,4.388,0V54.7a2.194,2.194,0,0,1-4.388,0Z" transform="translate(-93.93 -48.322)" fill="#a71c45" stroke="#a71c45" stroke-width="0.25"/>
    </g>
  </g>
</svg>
